%TF.GenerationSoftware,Altium Limited,Altium Designer,21.3.2 (30)*%
G04 Layer_Color=16711935*
%FSLAX26Y26*%
%MOIN*%
%TF.SameCoordinates,1719BFE3-EC80-49D5-815D-C9D469E1D468*%
%TF.FilePolarity,Negative*%
%TF.FileFunction,Soldermask,Bot*%
%TF.Part,Single*%
G01*
G75*
%TA.AperFunction,ComponentPad*%
G04:AMPARAMS|DCode=35|XSize=42.126mil|YSize=66.929mil|CornerRadius=21.063mil|HoleSize=0mil|Usage=FLASHONLY|Rotation=270.000|XOffset=0mil|YOffset=0mil|HoleType=Round|Shape=RoundedRectangle|*
%AMROUNDEDRECTD35*
21,1,0.042126,0.024803,0,0,270.0*
21,1,0.000000,0.066929,0,0,270.0*
1,1,0.042126,-0.012402,0.000000*
1,1,0.042126,-0.012402,0.000000*
1,1,0.042126,0.012402,0.000000*
1,1,0.042126,0.012402,0.000000*
%
%ADD35ROUNDEDRECTD35*%
%ADD36C,0.029528*%
%ADD37R,0.066929X0.042126*%
G04:AMPARAMS|DCode=46|XSize=78.866mil|YSize=149.732mil|CornerRadius=39.433mil|HoleSize=0mil|Usage=FLASHONLY|Rotation=180.000|XOffset=0mil|YOffset=0mil|HoleType=Round|Shape=RoundedRectangle|*
%AMROUNDEDRECTD46*
21,1,0.078866,0.070866,0,0,180.0*
21,1,0.000000,0.149732,0,0,180.0*
1,1,0.078866,0.000000,0.035433*
1,1,0.078866,0.000000,0.035433*
1,1,0.078866,0.000000,-0.035433*
1,1,0.078866,0.000000,-0.035433*
%
%ADD46ROUNDEDRECTD46*%
G04:AMPARAMS|DCode=47|XSize=78.866mil|YSize=149.732mil|CornerRadius=8.961mil|HoleSize=0mil|Usage=FLASHONLY|Rotation=180.000|XOffset=0mil|YOffset=0mil|HoleType=Round|Shape=RoundedRectangle|*
%AMROUNDEDRECTD47*
21,1,0.078866,0.131811,0,0,180.0*
21,1,0.060945,0.149732,0,0,180.0*
1,1,0.017921,-0.030473,0.065906*
1,1,0.017921,0.030473,0.065906*
1,1,0.017921,0.030473,-0.065906*
1,1,0.017921,-0.030473,-0.065906*
%
%ADD47ROUNDEDRECTD47*%
%ADD48R,0.067055X0.067055*%
%ADD49C,0.067055*%
%TA.AperFunction,ViaPad*%
%ADD50C,0.039496*%
%ADD51C,0.256031*%
%TA.AperFunction,ComponentPad*%
%ADD52R,0.083591X0.083591*%
%ADD53C,0.083591*%
G04:AMPARAMS|DCode=54|XSize=74.929mil|YSize=74.929mil|CornerRadius=37.465mil|HoleSize=0mil|Usage=FLASHONLY|Rotation=0.000|XOffset=0mil|YOffset=0mil|HoleType=Round|Shape=RoundedRectangle|*
%AMROUNDEDRECTD54*
21,1,0.074929,0.000000,0,0,0.0*
21,1,0.000000,0.074929,0,0,0.0*
1,1,0.074929,0.000000,0.000000*
1,1,0.074929,0.000000,0.000000*
1,1,0.074929,0.000000,0.000000*
1,1,0.074929,0.000000,0.000000*
%
%ADD54ROUNDEDRECTD54*%
%ADD55R,0.074929X0.074929*%
%ADD56C,0.039496*%
%ADD57C,0.256031*%
%ADD58C,0.078000*%
%ADD59R,0.078000X0.078000*%
%ADD60C,0.063118*%
%ADD61O,0.047370X0.086740*%
%ADD62O,0.047370X0.086740*%
%ADD63R,0.055244X0.055244*%
%ADD64C,0.055244*%
%ADD65C,0.096583*%
%ADD66R,0.078866X0.165480*%
%ADD67R,0.165480X0.078866*%
%ADD68C,0.068000*%
%ADD69R,0.074929X0.074929*%
%ADD70C,0.074929*%
G04:AMPARAMS|DCode=71|XSize=70.992mil|YSize=86.74mil|CornerRadius=11.874mil|HoleSize=0mil|Usage=FLASHONLY|Rotation=90.000|XOffset=0mil|YOffset=0mil|HoleType=Round|Shape=RoundedRectangle|*
%AMROUNDEDRECTD71*
21,1,0.070992,0.062992,0,0,90.0*
21,1,0.047244,0.086740,0,0,90.0*
1,1,0.023748,0.031496,0.023622*
1,1,0.023748,0.031496,-0.023622*
1,1,0.023748,-0.031496,-0.023622*
1,1,0.023748,-0.031496,0.023622*
%
%ADD71ROUNDEDRECTD71*%
%TA.AperFunction,ViaPad*%
%ADD72C,0.047370*%
D35*
X185433Y2847638D02*
D03*
D36*
Y2897638D02*
D03*
D37*
Y2947638D02*
D03*
D46*
X1444488Y3980315D02*
D03*
X1594488D02*
D03*
X2185039D02*
D03*
X2035039D02*
D03*
X243701Y3980315D02*
D03*
D47*
X1744488Y3980315D02*
D03*
X2335039D02*
D03*
X393701Y3980315D02*
D03*
D48*
X1496063Y86614D02*
D03*
X393701Y3704724D02*
D03*
X866142Y3946850D02*
D03*
X1251968D02*
D03*
D49*
X1396063Y86614D02*
D03*
X1296063D02*
D03*
X1196063D02*
D03*
X1096063D02*
D03*
X996063D02*
D03*
X896063D02*
D03*
X796063D02*
D03*
X696063D02*
D03*
X596063D02*
D03*
X496063D02*
D03*
X396063D02*
D03*
X293701Y3704724D02*
D03*
X193701D02*
D03*
X610236Y3946850D02*
D03*
Y4124016D02*
D03*
X866142D02*
D03*
X996063Y3946850D02*
D03*
Y4124016D02*
D03*
X1251968D02*
D03*
D50*
X2362205Y2771654D02*
D03*
X2267716Y2677165D02*
D03*
X2295392Y2743979D02*
D03*
Y2610352D02*
D03*
X2429018Y2743979D02*
D03*
Y2610352D02*
D03*
X2362205Y2582677D02*
D03*
X2456693Y2677165D02*
D03*
D51*
X2362205D02*
D03*
D52*
X327953Y2641732D02*
D03*
D53*
X237795D02*
D03*
X147638D02*
D03*
D54*
X414370Y616732D02*
D03*
Y1616732D02*
D03*
Y1116732D02*
D03*
Y1716732D02*
D03*
Y1916732D02*
D03*
Y1216732D02*
D03*
Y716732D02*
D03*
Y1016732D02*
D03*
Y1816732D02*
D03*
Y816732D02*
D03*
Y916732D02*
D03*
Y1316732D02*
D03*
Y1416732D02*
D03*
Y1516732D02*
D03*
X1394685Y616732D02*
D03*
Y1616732D02*
D03*
Y1116732D02*
D03*
Y1716732D02*
D03*
Y1916732D02*
D03*
Y1216732D02*
D03*
Y716732D02*
D03*
Y1016732D02*
D03*
Y1816732D02*
D03*
Y816732D02*
D03*
Y916732D02*
D03*
Y1316732D02*
D03*
Y1416732D02*
D03*
Y1516732D02*
D03*
D55*
X414370Y2016732D02*
D03*
X1394685D02*
D03*
D56*
X283858Y164567D02*
D03*
X189370Y70079D02*
D03*
X256183Y97754D02*
D03*
Y231380D02*
D03*
X122557Y97754D02*
D03*
Y231380D02*
D03*
X94882Y164567D02*
D03*
X189370Y259055D02*
D03*
D57*
Y164567D02*
D03*
D58*
X1577953Y2405512D02*
D03*
X1477953D02*
D03*
X1877953D02*
D03*
X1777953D02*
D03*
X1677953D02*
D03*
X177953D02*
D03*
X1377953D02*
D03*
X1277953D02*
D03*
X377953D02*
D03*
X477953D02*
D03*
X777953D02*
D03*
X77953D02*
D03*
X277953D02*
D03*
X677953D02*
D03*
X877953D02*
D03*
X1177953D02*
D03*
X1077953D02*
D03*
X977953D02*
D03*
X577953D02*
D03*
D59*
X1977953D02*
D03*
D60*
X1298819Y2584646D02*
D03*
X1598819D02*
D03*
X1177559Y2582677D02*
D03*
X877559D02*
D03*
X530512Y3067323D02*
D03*
Y2767323D02*
D03*
X815354Y3594488D02*
D03*
X515354D02*
D03*
X519291Y3492126D02*
D03*
X819291D02*
D03*
X984252Y3744488D02*
D03*
Y3444488D02*
D03*
X905512Y3744488D02*
D03*
Y3444488D02*
D03*
X1933465Y187190D02*
D03*
X1633465D02*
D03*
X1933465Y341642D02*
D03*
X1633465D02*
D03*
Y496094D02*
D03*
X1933465D02*
D03*
Y650545D02*
D03*
X1633465D02*
D03*
Y804997D02*
D03*
X1933465D02*
D03*
X1633465Y959449D02*
D03*
X1933465D02*
D03*
Y1113901D02*
D03*
X1633465D02*
D03*
X1933465Y1268352D02*
D03*
X1633465D02*
D03*
X1933465Y1422804D02*
D03*
X1633465D02*
D03*
Y1577256D02*
D03*
X1933465D02*
D03*
X1633465Y1731708D02*
D03*
X1933465D02*
D03*
X1633465Y1886160D02*
D03*
X1933465D02*
D03*
X1633465Y2040611D02*
D03*
X1933465D02*
D03*
X1633465Y2195063D02*
D03*
X1933465D02*
D03*
D61*
X640551Y2641732D02*
D03*
X590551D02*
D03*
X1603543Y2728347D02*
D03*
X909449D02*
D03*
D62*
X540551Y2641732D02*
D03*
X1653543Y2728347D02*
D03*
X1553543D02*
D03*
X959449D02*
D03*
X859449D02*
D03*
D63*
X2147638D02*
D03*
X1440945Y2728347D02*
D03*
X2167913Y1005512D02*
D03*
Y572441D02*
D03*
D64*
X1773622Y2728347D02*
D03*
X1066929Y2728347D02*
D03*
X2167913Y905512D02*
D03*
Y805512D02*
D03*
X2467913D02*
D03*
Y905512D02*
D03*
Y1005512D02*
D03*
X2167913Y472441D02*
D03*
Y372441D02*
D03*
X2467913D02*
D03*
Y472441D02*
D03*
Y572441D02*
D03*
D65*
X1137795Y3066929D02*
D03*
Y3547244D02*
D03*
X1610236D02*
D03*
Y3066929D02*
D03*
X1374016Y2988189D02*
D03*
X1885827Y3066929D02*
D03*
Y3547244D02*
D03*
X2358268D02*
D03*
Y3066929D02*
D03*
X2122047Y2988189D02*
D03*
D66*
X425197Y3389764D02*
D03*
X196850D02*
D03*
D67*
X307087Y3200787D02*
D03*
D68*
X685039Y3157480D02*
D03*
Y3413386D02*
D03*
X374016Y3035433D02*
D03*
Y2779528D02*
D03*
X685039Y3031496D02*
D03*
Y2775590D02*
D03*
D69*
X901575Y3166929D02*
D03*
D70*
Y3066929D02*
D03*
Y2966929D02*
D03*
D71*
X2362205Y1426772D02*
D03*
X2165354Y1576772D02*
D03*
X2362205Y1726772D02*
D03*
X2165354Y1876772D02*
D03*
X2362205Y2026772D02*
D03*
X2165354Y2176772D02*
D03*
X2362205Y2326772D02*
D03*
D72*
X1574803Y2016732D02*
D03*
X728346Y1692913D02*
D03*
X1476378Y1673228D02*
D03*
X745427Y1771653D02*
D03*
X1496063Y916732D02*
D03*
X1535433Y728346D02*
D03*
X2244095Y295276D02*
D03*
X2389528Y1062992D02*
D03*
Y1240158D02*
D03*
X2244771Y1211055D02*
D03*
%TF.MD5,90ea814ec022329586175f5ce51f88a9*%
M02*
