%TF.GenerationSoftware,Altium Limited,Altium Designer,21.3.2 (30)*%
G04 Layer_Color=0*
%FSLAX26Y26*%
%MOIN*%
%TF.SameCoordinates,1719BFE3-EC80-49D5-815D-C9D469E1D468*%
%TF.FilePolarity,Positive*%
%TF.FileFunction,Plated,1,2,PTH,Drill*%
%TF.Part,Single*%
G01*
G75*
%TA.AperFunction,ComponentDrill*%
%ADD81C,0.047244*%
%ADD82C,0.035433*%
%TA.AperFunction,OtherDrill,Pad Free-19 (2362.205mil,2771.654mil)*%
%ADD83C,0.019685*%
%TA.AperFunction,OtherDrill,Pad Free-19 (2267.716mil,2677.165mil)*%
%ADD84C,0.019685*%
%TA.AperFunction,OtherDrill,Pad Free-19 (2295.392mil,2743.979mil)*%
%ADD85C,0.019685*%
%TA.AperFunction,OtherDrill,Pad Free-19 (2295.392mil,2610.352mil)*%
%ADD86C,0.019685*%
%TA.AperFunction,OtherDrill,Pad Free-19 (2429.018mil,2743.979mil)*%
%ADD87C,0.019685*%
%TA.AperFunction,OtherDrill,Pad Free-19 (2362.205mil,2677.165mil)*%
%ADD88C,0.129921*%
%TA.AperFunction,OtherDrill,Pad Free-19 (2429.018mil,2610.352mil)*%
%ADD89C,0.019685*%
%TA.AperFunction,OtherDrill,Pad Free-19 (2362.205mil,2582.677mil)*%
%ADD90C,0.019685*%
%TA.AperFunction,OtherDrill,Pad Free-19 (2456.693mil,2677.165mil)*%
%ADD91C,0.019685*%
%TA.AperFunction,ComponentDrill*%
%ADD92C,0.050394*%
%ADD93C,0.039370*%
%ADD94C,0.019685*%
%ADD95C,0.129921*%
%ADD96C,0.019685*%
%ADD97C,0.033465*%
%ADD98C,0.027559*%
%ADD99C,0.031496*%
%ADD100C,0.029528*%
%ADD101C,0.035433*%
%ADD102C,0.035433*%
%ADD103C,0.059055*%
%ADD104O,0.031496X0.118110*%
%ADD105O,0.118110X0.031496*%
%ADD106C,0.033465*%
%ADD107C,0.030000*%
%ADD108C,0.038976*%
%ADD109C,0.043307*%
%ADD110C,0.039370*%
%TA.AperFunction,ViaDrill,NotFilled*%
%ADD111C,0.011811*%
D81*
X1444488Y3980315D02*
D03*
X1594488D02*
D03*
X1744488D02*
D03*
X2335039D02*
D03*
X2185039D02*
D03*
X2035039D02*
D03*
X393701Y3980315D02*
D03*
X243701D02*
D03*
D82*
X1496063Y86614D02*
D03*
X1396063D02*
D03*
X1296063D02*
D03*
X1196063D02*
D03*
X1096063D02*
D03*
X996063D02*
D03*
X896063D02*
D03*
X796063D02*
D03*
X696063D02*
D03*
X596063D02*
D03*
X496063D02*
D03*
X396063D02*
D03*
X393701Y3704724D02*
D03*
X293701D02*
D03*
X193701D02*
D03*
D83*
X2362205Y2771654D02*
D03*
D84*
X2267716Y2677165D02*
D03*
D85*
X2295392Y2743979D02*
D03*
D86*
Y2610352D02*
D03*
D87*
X2429018Y2743979D02*
D03*
D88*
X2362205Y2677165D02*
D03*
D89*
X2429018Y2610352D02*
D03*
D90*
X2362205Y2582677D02*
D03*
D91*
X2456693Y2677165D02*
D03*
D92*
X327953Y2641732D02*
D03*
X237795D02*
D03*
X147638D02*
D03*
D93*
X414370Y616732D02*
D03*
Y1616732D02*
D03*
Y1116732D02*
D03*
Y1716732D02*
D03*
Y2016732D02*
D03*
Y1916732D02*
D03*
Y1216732D02*
D03*
Y716732D02*
D03*
Y1016732D02*
D03*
Y1816732D02*
D03*
Y816732D02*
D03*
Y916732D02*
D03*
Y1316732D02*
D03*
Y1416732D02*
D03*
Y1516732D02*
D03*
X1394685Y616732D02*
D03*
Y1616732D02*
D03*
Y1116732D02*
D03*
Y1716732D02*
D03*
Y2016732D02*
D03*
Y1916732D02*
D03*
Y1216732D02*
D03*
Y716732D02*
D03*
Y1016732D02*
D03*
Y1816732D02*
D03*
Y816732D02*
D03*
Y916732D02*
D03*
Y1316732D02*
D03*
Y1416732D02*
D03*
Y1516732D02*
D03*
X1577953Y2405512D02*
D03*
X1477953D02*
D03*
X1877953D02*
D03*
X1977953D02*
D03*
X1777953D02*
D03*
X1677953D02*
D03*
X177953D02*
D03*
X1377953D02*
D03*
X1277953D02*
D03*
X377953D02*
D03*
X477953D02*
D03*
X777953D02*
D03*
X77953D02*
D03*
X277953D02*
D03*
X677953D02*
D03*
X877953D02*
D03*
X1177953D02*
D03*
X1077953D02*
D03*
X977953D02*
D03*
X577953D02*
D03*
D94*
X283858Y164567D02*
D03*
X189370Y70079D02*
D03*
X256183Y97754D02*
D03*
Y231380D02*
D03*
X122557Y97754D02*
D03*
X94882Y164567D02*
D03*
X189370Y259055D02*
D03*
D95*
Y164567D02*
D03*
D96*
X122557Y231380D02*
D03*
D97*
X1298819Y2584646D02*
D03*
X1598819D02*
D03*
X1177559Y2582677D02*
D03*
X877559D02*
D03*
X815354Y3594488D02*
D03*
X515354D02*
D03*
X519291Y3492126D02*
D03*
X819291D02*
D03*
X1933465Y187190D02*
D03*
X1633465D02*
D03*
X1933465Y341642D02*
D03*
X1633465D02*
D03*
Y496094D02*
D03*
X1933465D02*
D03*
Y650545D02*
D03*
X1633465D02*
D03*
Y804997D02*
D03*
X1933465D02*
D03*
X1633465Y959449D02*
D03*
X1933465D02*
D03*
Y1113901D02*
D03*
X1633465D02*
D03*
X1933465Y1268352D02*
D03*
X1633465D02*
D03*
X1933465Y1422804D02*
D03*
X1633465D02*
D03*
Y1577256D02*
D03*
X1933465D02*
D03*
X1633465Y1731708D02*
D03*
X1933465D02*
D03*
X1633465Y1886160D02*
D03*
X1933465D02*
D03*
X1633465Y2040611D02*
D03*
X1933465D02*
D03*
X1633465Y2195063D02*
D03*
X1933465D02*
D03*
D98*
X640551Y2641732D02*
D03*
X590551D02*
D03*
X540551D02*
D03*
D99*
X2147638Y2728347D02*
D03*
X1773622D02*
D03*
X1440945Y2728347D02*
D03*
X1066929D02*
D03*
X2167913Y1005512D02*
D03*
Y905512D02*
D03*
Y805512D02*
D03*
X2467913D02*
D03*
Y905512D02*
D03*
Y1005512D02*
D03*
X2167913Y572441D02*
D03*
Y472441D02*
D03*
Y372441D02*
D03*
X2467913D02*
D03*
Y472441D02*
D03*
Y572441D02*
D03*
D100*
X185433Y2847638D02*
D03*
Y2947638D02*
D03*
D101*
X1653543Y2728347D02*
D03*
X1553543D02*
D03*
X959449D02*
D03*
X859449D02*
D03*
D102*
X1603543D02*
D03*
X909449D02*
D03*
D103*
X1137795Y3066929D02*
D03*
Y3547244D02*
D03*
X1610236D02*
D03*
Y3066929D02*
D03*
X1374016Y2988189D02*
D03*
X1885827Y3066929D02*
D03*
Y3547244D02*
D03*
X2358268D02*
D03*
Y3066929D02*
D03*
X2122047Y2988189D02*
D03*
D104*
X425197Y3389764D02*
D03*
X196850D02*
D03*
D105*
X307087Y3200787D02*
D03*
D106*
X530512Y3067323D02*
D03*
Y2767323D02*
D03*
X984252Y3744488D02*
D03*
Y3444488D02*
D03*
X905512Y3744488D02*
D03*
Y3444488D02*
D03*
D107*
X685039Y3157480D02*
D03*
Y3413386D02*
D03*
X374016Y3035433D02*
D03*
Y2779528D02*
D03*
X685039Y3031496D02*
D03*
Y2775590D02*
D03*
D108*
X610236Y3946850D02*
D03*
Y4124016D02*
D03*
X866142D02*
D03*
Y3946850D02*
D03*
X996063D02*
D03*
Y4124016D02*
D03*
X1251968D02*
D03*
Y3946850D02*
D03*
D109*
X901575Y3166929D02*
D03*
Y3066929D02*
D03*
Y2966929D02*
D03*
D110*
X2362205Y1426772D02*
D03*
X2165354Y1576772D02*
D03*
X2362205Y1726772D02*
D03*
X2165354Y1876772D02*
D03*
X2362205Y2026772D02*
D03*
X2165354Y2176772D02*
D03*
X2362205Y2326772D02*
D03*
D111*
X1574803Y2016732D02*
D03*
X728346Y1692913D02*
D03*
X1476378Y1673228D02*
D03*
X745427Y1771653D02*
D03*
X1496063Y916732D02*
D03*
X1535433Y728346D02*
D03*
X2244095Y295276D02*
D03*
X2389528Y1062992D02*
D03*
Y1240158D02*
D03*
X2244771Y1211055D02*
D03*
%TF.MD5,74cf92341f7f441f45e76fd888329e0e*%
M02*
