%TF.GenerationSoftware,KiCad,Pcbnew,(5.1.9)-1*%
%TF.CreationDate,2021-04-12T11:09:22+02:00*%
%TF.ProjectId,FinalBoard,46696e61-6c42-46f6-9172-642e6b696361,v01*%
%TF.SameCoordinates,Original*%
%TF.FileFunction,Plated,1,2,PTH,Mixed*%
%TF.FilePolarity,Positive*%
%FSLAX46Y46*%
G04 Gerber Fmt 4.6, Leading zero omitted, Abs format (unit mm)*
G04 Created by KiCad (PCBNEW (5.1.9)-1) date 2021-04-12 11:09:22*
%MOMM*%
%LPD*%
G01*
G04 APERTURE LIST*
%TA.AperFunction,ViaDrill*%
%ADD10C,0.400000*%
%TD*%
%TA.AperFunction,ComponentDrill*%
%ADD11C,0.500000*%
%TD*%
%TA.AperFunction,ComponentDrill*%
%ADD12C,0.750000*%
%TD*%
%TA.AperFunction,ComponentDrill*%
%ADD13C,0.762000*%
%TD*%
G04 aperture for slot hole*
%TA.AperFunction,ComponentDrill*%
%ADD14C,0.800000*%
%TD*%
%TA.AperFunction,ComponentDrill*%
%ADD15C,0.800000*%
%TD*%
%TA.AperFunction,ComponentDrill*%
%ADD16C,1.000000*%
%TD*%
%TA.AperFunction,ComponentDrill*%
%ADD17C,1.100000*%
%TD*%
%TA.AperFunction,ComponentDrill*%
%ADD18C,1.200000*%
%TD*%
%TA.AperFunction,ComponentDrill*%
%ADD19C,3.200000*%
%TD*%
%TA.AperFunction,ComponentDrill*%
%ADD20C,3.300000*%
%TD*%
G04 APERTURE END LIST*
D10*
X183000000Y-91000000D03*
X187100000Y-92000000D03*
X188750000Y-101150000D03*
X190800000Y-100800000D03*
X190900000Y-125050000D03*
X192150000Y-99600000D03*
X195750000Y-99750000D03*
X196550000Y-129950000D03*
X197800000Y-134200000D03*
X198000000Y-135500000D03*
X199657014Y-98765014D03*
X201382010Y-97950010D03*
X215500000Y-131300000D03*
X216320000Y-99600000D03*
X216800000Y-130000000D03*
X217500000Y-100000000D03*
X219550000Y-97500000D03*
X220650000Y-92950000D03*
X237450000Y-101500000D03*
D11*
%TO.C,ESP32_Gateway_revG*%
X180896000Y-151734000D03*
X181598944Y-150036944D03*
X181598944Y-153431056D03*
X183296000Y-149334000D03*
X183296000Y-154134000D03*
X184993056Y-150036944D03*
X184993056Y-153431056D03*
X185696000Y-151734000D03*
%TO.C,GND*%
X250750000Y-99500000D03*
X251452944Y-97802944D03*
X251452944Y-101197056D03*
X253150000Y-97100000D03*
X253150000Y-101900000D03*
X254847056Y-97802944D03*
X254847056Y-101197056D03*
X255550000Y-99500000D03*
D12*
%TO.C,R16*%
X183500000Y-119960000D03*
X183500000Y-122500000D03*
%TO.C,Q1*%
X236500000Y-77500000D03*
X236500000Y-78770000D03*
X236500000Y-80040000D03*
%TO.C,Q2*%
X254500000Y-77500000D03*
X254500000Y-78770000D03*
X254500000Y-80040000D03*
D13*
%TO.C,C3*%
X183500000Y-126500000D03*
X183500000Y-133000000D03*
%TO.C,C1*%
X199500000Y-83500000D03*
X199500000Y-90000000D03*
%TO.C,C2*%
X215500000Y-83500000D03*
X215500000Y-90000000D03*
D14*
%TO.C,J1*%
X187330000Y-86600000D02*
X187330000Y-84400000D01*
X191230000Y-90300000D02*
X189030000Y-90300000D01*
X193130000Y-86800000D02*
X193130000Y-84200000D01*
D15*
%TO.C,D2*%
X236500000Y-83500000D03*
X236500000Y-91120000D03*
%TO.C,U3*%
X250420000Y-107500000D03*
X250420000Y-115120000D03*
%TO.C,U2*%
X250420000Y-118500000D03*
X250420000Y-126120000D03*
%TO.C,U3*%
X252960000Y-107500000D03*
X252960000Y-115120000D03*
%TO.C,U2*%
X252960000Y-118500000D03*
X252960000Y-126120000D03*
%TO.C,D3*%
X254500000Y-83500000D03*
X254500000Y-91120000D03*
%TO.C,U3*%
X255500000Y-107500000D03*
X255500000Y-115120000D03*
%TO.C,U2*%
X255500000Y-118500000D03*
X255500000Y-126120000D03*
D16*
%TO.C,ESP32_Gateway_revG*%
X180466000Y-94814000D03*
%TO.C,JP1*%
X180938000Y-77000000D03*
%TO.C,ESP32_Gateway_revG*%
X183006000Y-94814000D03*
%TO.C,JP1*%
X183478000Y-77000000D03*
%TO.C,ESP32_Gateway_revG*%
X185546000Y-94814000D03*
%TO.C,JP1*%
X186018000Y-77000000D03*
%TO.C,ESP32_Gateway_revG*%
X188086000Y-94814000D03*
%TO.C,ESP32_devkitV1*%
X188628000Y-107254000D03*
X188628000Y-109794000D03*
X188628000Y-112334000D03*
X188628000Y-114874000D03*
X188628000Y-117414000D03*
X188628000Y-119954000D03*
X188628000Y-122494000D03*
X188628000Y-125034000D03*
X188628000Y-127574000D03*
X188628000Y-130114000D03*
X188628000Y-132654000D03*
X188628000Y-135194000D03*
X188628000Y-137734000D03*
X188628000Y-140274000D03*
X188628000Y-142814000D03*
%TO.C,J2*%
X189060000Y-155500000D03*
%TO.C,ESP32_Gateway_revG*%
X190626000Y-94814000D03*
%TO.C,J2*%
X191600000Y-155500000D03*
%TO.C,ESP32_Gateway_revG*%
X193166000Y-94814000D03*
%TO.C,J2*%
X194140000Y-155500000D03*
%TO.C,ESP32_Gateway_revG*%
X195706000Y-94814000D03*
%TO.C,J2*%
X196680000Y-155500000D03*
%TO.C,ESP32_Gateway_revG*%
X198246000Y-94814000D03*
%TO.C,D4*%
X198500000Y-76500000D03*
X198500000Y-79040000D03*
%TO.C,J2*%
X199220000Y-155500000D03*
%TO.C,ESP32_Gateway_revG*%
X200786000Y-94814000D03*
%TO.C,J2*%
X201760000Y-155500000D03*
%TO.C,ESP32_Gateway_revG*%
X203326000Y-94814000D03*
%TO.C,J2*%
X204300000Y-155500000D03*
%TO.C,D1*%
X205500000Y-76500000D03*
X205500000Y-79040000D03*
%TO.C,ESP32_Gateway_revG*%
X205866000Y-94814000D03*
%TO.C,J2*%
X206840000Y-155500000D03*
%TO.C,ESP32_Gateway_revG*%
X208406000Y-94814000D03*
%TO.C,J2*%
X209380000Y-155500000D03*
%TO.C,ESP32_Gateway_revG*%
X210946000Y-94814000D03*
%TO.C,J2*%
X211920000Y-155500000D03*
%TO.C,SW1*%
X212500000Y-64000000D03*
X212500000Y-68500000D03*
%TO.C,SW2*%
X212500000Y-73000000D03*
X212500000Y-77500000D03*
%TO.C,ESP32_Gateway_revG*%
X213486000Y-94814000D03*
%TO.C,ESP32_devkitV1*%
X213528000Y-107254000D03*
X213528000Y-109794000D03*
X213528000Y-112334000D03*
X213528000Y-114874000D03*
X213528000Y-117414000D03*
X213528000Y-119954000D03*
X213528000Y-122494000D03*
X213528000Y-125034000D03*
X213528000Y-127574000D03*
X213528000Y-130114000D03*
X213528000Y-132654000D03*
X213528000Y-135194000D03*
X213528000Y-137734000D03*
X213528000Y-140274000D03*
X213528000Y-142814000D03*
%TO.C,J2*%
X214460000Y-155500000D03*
%TO.C,ESP32_Gateway_revG*%
X216026000Y-94814000D03*
%TO.C,J2*%
X217000000Y-155500000D03*
%TO.C,ESP32_Gateway_revG*%
X218566000Y-94814000D03*
%TO.C,SW1*%
X219000000Y-64000000D03*
X219000000Y-68500000D03*
%TO.C,SW2*%
X219000000Y-73000000D03*
X219000000Y-77500000D03*
%TO.C,ESP32_Gateway_revG*%
X221106000Y-94814000D03*
X223646000Y-94814000D03*
%TO.C,K1*%
X225500000Y-77500000D03*
X225500000Y-80040000D03*
X225500000Y-87660000D03*
%TO.C,ESP32_Gateway_revG*%
X226186000Y-94814000D03*
X228726000Y-94814000D03*
%TO.C,K1*%
X230580000Y-77500000D03*
X230580000Y-80040000D03*
X230580000Y-87660000D03*
%TO.C,D6*%
X238960000Y-113500000D03*
%TO.C,D5*%
X238960000Y-119500000D03*
%TO.C,D6*%
X241500000Y-113500000D03*
%TO.C,D5*%
X241500000Y-119500000D03*
%TO.C,K2*%
X243500000Y-77500000D03*
X243500000Y-80040000D03*
X243500000Y-87660000D03*
%TO.C,J3*%
X247500000Y-134950000D03*
X247500000Y-142570000D03*
X247500000Y-150190000D03*
%TO.C,K2*%
X248580000Y-77500000D03*
X248580000Y-80040000D03*
X248580000Y-87660000D03*
%TO.C,J3*%
X252500000Y-131140000D03*
X252500000Y-138760000D03*
X252500000Y-146380000D03*
X252500000Y-154000000D03*
D17*
%TO.C,U1*%
X208500000Y-84420000D03*
X208500000Y-86960000D03*
X208500000Y-89500000D03*
D18*
%TO.C,J4*%
X182690000Y-71500000D03*
%TO.C,R13*%
X183500000Y-100800000D03*
X183500000Y-113500000D03*
%TO.C,J4*%
X186500000Y-71500000D03*
%TO.C,R3*%
X192800000Y-65500000D03*
%TO.C,R8*%
X192800000Y-71500000D03*
%TO.C,R3*%
X205500000Y-65500000D03*
%TO.C,R8*%
X205500000Y-71500000D03*
%TO.C,R1*%
X221500000Y-101500000D03*
%TO.C,R2*%
X221500000Y-107500000D03*
%TO.C,R6*%
X221500000Y-113500000D03*
%TO.C,R7*%
X221500000Y-119500000D03*
%TO.C,R14*%
X221500000Y-125500000D03*
%TO.C,R15*%
X221500000Y-131500000D03*
%TO.C,R17*%
X221500000Y-137500000D03*
%TO.C,R18*%
X221500000Y-143500000D03*
%TO.C,R9*%
X221500000Y-149500000D03*
%TO.C,R11*%
X221500000Y-155500000D03*
%TO.C,J5*%
X226880000Y-71500000D03*
X230690000Y-71500000D03*
%TO.C,R1*%
X234200000Y-101500000D03*
%TO.C,R2*%
X234200000Y-107500000D03*
%TO.C,R6*%
X234200000Y-113500000D03*
%TO.C,R7*%
X234200000Y-119500000D03*
%TO.C,R14*%
X234200000Y-125500000D03*
%TO.C,R15*%
X234200000Y-131500000D03*
%TO.C,R17*%
X234200000Y-137500000D03*
%TO.C,R18*%
X234200000Y-143500000D03*
%TO.C,R9*%
X234200000Y-149500000D03*
%TO.C,R11*%
X234200000Y-155500000D03*
%TO.C,J5*%
X234500000Y-71500000D03*
%TO.C,R4*%
X239500000Y-95300000D03*
X239500000Y-108000000D03*
%TO.C,R12*%
X239500000Y-124800000D03*
X239500000Y-137500000D03*
%TO.C,R10*%
X239500000Y-142800000D03*
X239500000Y-155500000D03*
%TO.C,J6*%
X244880000Y-71500000D03*
%TO.C,R5*%
X245500000Y-95300000D03*
X245500000Y-108000000D03*
%TO.C,J6*%
X248690000Y-71500000D03*
X252500000Y-71500000D03*
D19*
%TO.C,GND*%
X253150000Y-99500000D03*
D20*
%TO.C,ESP32_Gateway_revG*%
X183296000Y-151734000D03*
M02*
