%TF.GenerationSoftware,KiCad,Pcbnew,(5.1.9)-1*%
%TF.CreationDate,2021-04-13T13:59:35+02:00*%
%TF.ProjectId,FinalBoard,46696e61-6c42-46f6-9172-642e6b696361,v01*%
%TF.SameCoordinates,Original*%
%TF.FileFunction,Legend,Top*%
%TF.FilePolarity,Positive*%
%FSLAX46Y46*%
G04 Gerber Fmt 4.6, Leading zero omitted, Abs format (unit mm)*
G04 Created by KiCad (PCBNEW (5.1.9)-1) date 2021-04-13 13:59:35*
%MOMM*%
%LPD*%
G01*
G04 APERTURE LIST*
%ADD10C,0.150000*%
%ADD11C,0.120000*%
%ADD12C,0.175000*%
%ADD13C,0.160000*%
%ADD14C,0.254000*%
%ADD15C,0.100000*%
G04 APERTURE END LIST*
D10*
X179023809Y-91952380D02*
X179642857Y-91952380D01*
X179309523Y-92333333D01*
X179452380Y-92333333D01*
X179547619Y-92380952D01*
X179595238Y-92428571D01*
X179642857Y-92523809D01*
X179642857Y-92761904D01*
X179595238Y-92857142D01*
X179547619Y-92904761D01*
X179452380Y-92952380D01*
X179166666Y-92952380D01*
X179071428Y-92904761D01*
X179023809Y-92857142D01*
X180071428Y-92857142D02*
X180119047Y-92904761D01*
X180071428Y-92952380D01*
X180023809Y-92904761D01*
X180071428Y-92857142D01*
X180071428Y-92952380D01*
X180452380Y-91952380D02*
X181071428Y-91952380D01*
X180738095Y-92333333D01*
X180880952Y-92333333D01*
X180976190Y-92380952D01*
X181023809Y-92428571D01*
X181071428Y-92523809D01*
X181071428Y-92761904D01*
X181023809Y-92857142D01*
X180976190Y-92904761D01*
X180880952Y-92952380D01*
X180595238Y-92952380D01*
X180500000Y-92904761D01*
X180452380Y-92857142D01*
X181357142Y-91952380D02*
X181690476Y-92952380D01*
X182023809Y-91952380D01*
X228809523Y-91952380D02*
X228333333Y-91952380D01*
X228285714Y-92428571D01*
X228333333Y-92380952D01*
X228428571Y-92333333D01*
X228666666Y-92333333D01*
X228761904Y-92380952D01*
X228809523Y-92428571D01*
X228857142Y-92523809D01*
X228857142Y-92761904D01*
X228809523Y-92857142D01*
X228761904Y-92904761D01*
X228666666Y-92952380D01*
X228428571Y-92952380D01*
X228333333Y-92904761D01*
X228285714Y-92857142D01*
X229142857Y-91952380D02*
X229476190Y-92952380D01*
X229809523Y-91952380D01*
D11*
X257000000Y-117000000D02*
G75*
G03*
X257000000Y-117000000I-500000J0D01*
G01*
X257000000Y-105500000D02*
G75*
G03*
X257000000Y-105500000I-500000J0D01*
G01*
D10*
X209023809Y-142452380D02*
X209642857Y-142452380D01*
X209309523Y-142833333D01*
X209452380Y-142833333D01*
X209547619Y-142880952D01*
X209595238Y-142928571D01*
X209642857Y-143023809D01*
X209642857Y-143261904D01*
X209595238Y-143357142D01*
X209547619Y-143404761D01*
X209452380Y-143452380D01*
X209166666Y-143452380D01*
X209071428Y-143404761D01*
X209023809Y-143357142D01*
X210071428Y-143357142D02*
X210119047Y-143404761D01*
X210071428Y-143452380D01*
X210023809Y-143404761D01*
X210071428Y-143357142D01*
X210071428Y-143452380D01*
X210452380Y-142452380D02*
X211071428Y-142452380D01*
X210738095Y-142833333D01*
X210880952Y-142833333D01*
X210976190Y-142880952D01*
X211023809Y-142928571D01*
X211071428Y-143023809D01*
X211071428Y-143261904D01*
X211023809Y-143357142D01*
X210976190Y-143404761D01*
X210880952Y-143452380D01*
X210595238Y-143452380D01*
X210500000Y-143404761D01*
X210452380Y-143357142D01*
X211357142Y-142452380D02*
X211690476Y-143452380D01*
X212023809Y-142452380D01*
X190809523Y-142452380D02*
X190333333Y-142452380D01*
X190285714Y-142928571D01*
X190333333Y-142880952D01*
X190428571Y-142833333D01*
X190666666Y-142833333D01*
X190761904Y-142880952D01*
X190809523Y-142928571D01*
X190857142Y-143023809D01*
X190857142Y-143261904D01*
X190809523Y-143357142D01*
X190761904Y-143404761D01*
X190666666Y-143452380D01*
X190428571Y-143452380D01*
X190333333Y-143404761D01*
X190285714Y-143357142D01*
X191142857Y-142452380D02*
X191476190Y-143452380D01*
X191809523Y-142452380D01*
X179452380Y-71261904D02*
X179452380Y-71833333D01*
X179452380Y-71547619D02*
X178452380Y-71547619D01*
X178595238Y-71642857D01*
X178690476Y-71738095D01*
X178738095Y-71833333D01*
X178547619Y-70880952D02*
X178500000Y-70833333D01*
X178452380Y-70738095D01*
X178452380Y-70500000D01*
X178500000Y-70404761D01*
X178547619Y-70357142D01*
X178642857Y-70309523D01*
X178738095Y-70309523D01*
X178880952Y-70357142D01*
X179452380Y-70928571D01*
X179452380Y-70309523D01*
X178452380Y-70023809D02*
X179452380Y-69690476D01*
X178452380Y-69357142D01*
X178404761Y-68309523D02*
X179690476Y-69166666D01*
X178452380Y-67785714D02*
X178452380Y-67690476D01*
X178500000Y-67595238D01*
X178547619Y-67547619D01*
X178642857Y-67500000D01*
X178833333Y-67452380D01*
X179071428Y-67452380D01*
X179261904Y-67500000D01*
X179357142Y-67547619D01*
X179404761Y-67595238D01*
X179452380Y-67690476D01*
X179452380Y-67785714D01*
X179404761Y-67880952D01*
X179357142Y-67928571D01*
X179261904Y-67976190D01*
X179071428Y-68023809D01*
X178833333Y-68023809D01*
X178642857Y-67976190D01*
X178547619Y-67928571D01*
X178500000Y-67880952D01*
X178452380Y-67785714D01*
X179357142Y-67023809D02*
X179404761Y-66976190D01*
X179452380Y-67023809D01*
X179404761Y-67071428D01*
X179357142Y-67023809D01*
X179452380Y-67023809D01*
X178452380Y-66071428D02*
X178452380Y-66547619D01*
X178928571Y-66595238D01*
X178880952Y-66547619D01*
X178833333Y-66452380D01*
X178833333Y-66214285D01*
X178880952Y-66119047D01*
X178928571Y-66071428D01*
X179023809Y-66023809D01*
X179261904Y-66023809D01*
X179357142Y-66071428D01*
X179404761Y-66119047D01*
X179452380Y-66214285D01*
X179452380Y-66452380D01*
X179404761Y-66547619D01*
X179357142Y-66595238D01*
X179166666Y-65642857D02*
X179166666Y-65166666D01*
X179452380Y-65738095D02*
X178452380Y-65404761D01*
X179452380Y-65071428D01*
X180047619Y-78952380D02*
X180238095Y-78952380D01*
X180333333Y-79000000D01*
X180428571Y-79095238D01*
X180476190Y-79285714D01*
X180476190Y-79619047D01*
X180428571Y-79809523D01*
X180333333Y-79904761D01*
X180238095Y-79952380D01*
X180047619Y-79952380D01*
X179952380Y-79904761D01*
X179857142Y-79809523D01*
X179809523Y-79619047D01*
X179809523Y-79285714D01*
X179857142Y-79095238D01*
X179952380Y-79000000D01*
X180047619Y-78952380D01*
X181238095Y-79428571D02*
X180904761Y-79428571D01*
X180904761Y-79952380D02*
X180904761Y-78952380D01*
X181380952Y-78952380D01*
X182095238Y-79428571D02*
X181761904Y-79428571D01*
X181761904Y-79952380D02*
X181761904Y-78952380D01*
X182238095Y-78952380D01*
X240214285Y-72627380D02*
X240214285Y-71627380D01*
X240785714Y-72627380D01*
X240785714Y-71627380D01*
X241833333Y-72532142D02*
X241785714Y-72579761D01*
X241642857Y-72627380D01*
X241547619Y-72627380D01*
X241404761Y-72579761D01*
X241309523Y-72484523D01*
X241261904Y-72389285D01*
X241214285Y-72198809D01*
X241214285Y-72055952D01*
X241261904Y-71865476D01*
X241309523Y-71770238D01*
X241404761Y-71675000D01*
X241547619Y-71627380D01*
X241642857Y-71627380D01*
X241785714Y-71675000D01*
X241833333Y-71722619D01*
X255690476Y-72452380D02*
X255690476Y-71452380D01*
X256261904Y-72452380D01*
X256261904Y-71452380D01*
X256928571Y-71452380D02*
X257119047Y-71452380D01*
X257214285Y-71500000D01*
X257309523Y-71595238D01*
X257357142Y-71785714D01*
X257357142Y-72119047D01*
X257309523Y-72309523D01*
X257214285Y-72404761D01*
X257119047Y-72452380D01*
X256928571Y-72452380D01*
X256833333Y-72404761D01*
X256738095Y-72309523D01*
X256690476Y-72119047D01*
X256690476Y-71785714D01*
X256738095Y-71595238D01*
X256833333Y-71500000D01*
X256928571Y-71452380D01*
X222214285Y-72627380D02*
X222214285Y-71627380D01*
X222785714Y-72627380D01*
X222785714Y-71627380D01*
X223833333Y-72532142D02*
X223785714Y-72579761D01*
X223642857Y-72627380D01*
X223547619Y-72627380D01*
X223404761Y-72579761D01*
X223309523Y-72484523D01*
X223261904Y-72389285D01*
X223214285Y-72198809D01*
X223214285Y-72055952D01*
X223261904Y-71865476D01*
X223309523Y-71770238D01*
X223404761Y-71675000D01*
X223547619Y-71627380D01*
X223642857Y-71627380D01*
X223785714Y-71675000D01*
X223833333Y-71722619D01*
X237690476Y-72452380D02*
X237690476Y-71452380D01*
X238261904Y-72452380D01*
X238261904Y-71452380D01*
X238928571Y-71452380D02*
X239119047Y-71452380D01*
X239214285Y-71500000D01*
X239309523Y-71595238D01*
X239357142Y-71785714D01*
X239357142Y-72119047D01*
X239309523Y-72309523D01*
X239214285Y-72404761D01*
X239119047Y-72452380D01*
X238928571Y-72452380D01*
X238833333Y-72404761D01*
X238738095Y-72309523D01*
X238690476Y-72119047D01*
X238690476Y-71785714D01*
X238738095Y-71595238D01*
X238833333Y-71500000D01*
X238928571Y-71452380D01*
D12*
X243500000Y-155200000D02*
X243452380Y-155266666D01*
X243452380Y-155366666D01*
X243500000Y-155466666D01*
X243595238Y-155533333D01*
X243690476Y-155566666D01*
X243880952Y-155600000D01*
X244023809Y-155600000D01*
X244214285Y-155566666D01*
X244309523Y-155533333D01*
X244404761Y-155466666D01*
X244452380Y-155366666D01*
X244452380Y-155300000D01*
X244404761Y-155200000D01*
X244357142Y-155166666D01*
X244023809Y-155166666D01*
X244023809Y-155300000D01*
X244452380Y-154866666D02*
X243452380Y-154866666D01*
X244452380Y-154466666D01*
X243452380Y-154466666D01*
X244452380Y-154133333D02*
X243452380Y-154133333D01*
X243452380Y-153966666D01*
X243500000Y-153866666D01*
X243595238Y-153800000D01*
X243690476Y-153766666D01*
X243880952Y-153733333D01*
X244023809Y-153733333D01*
X244214285Y-153766666D01*
X244309523Y-153800000D01*
X244404761Y-153866666D01*
X244452380Y-153966666D01*
X244452380Y-154133333D01*
X244452380Y-152366666D02*
X243452380Y-152366666D01*
X244452380Y-152033333D02*
X243452380Y-152033333D01*
X244452380Y-151633333D01*
X243452380Y-151633333D01*
X244452380Y-150933333D02*
X244452380Y-151333333D01*
X244452380Y-151133333D02*
X243452380Y-151133333D01*
X243595238Y-151200000D01*
X243690476Y-151266666D01*
X243738095Y-151333333D01*
X244452380Y-149566666D02*
X243452380Y-149566666D01*
X244452380Y-149233333D02*
X243452380Y-149233333D01*
X244452380Y-148833333D01*
X243452380Y-148833333D01*
X243547619Y-148533333D02*
X243500000Y-148500000D01*
X243452380Y-148433333D01*
X243452380Y-148266666D01*
X243500000Y-148200000D01*
X243547619Y-148166666D01*
X243642857Y-148133333D01*
X243738095Y-148133333D01*
X243880952Y-148166666D01*
X244452380Y-148566666D01*
X244452380Y-148133333D01*
X243452380Y-146633333D02*
X243452380Y-146500000D01*
X243500000Y-146433333D01*
X243595238Y-146366666D01*
X243785714Y-146333333D01*
X244119047Y-146333333D01*
X244309523Y-146366666D01*
X244404761Y-146433333D01*
X244452380Y-146500000D01*
X244452380Y-146633333D01*
X244404761Y-146700000D01*
X244309523Y-146766666D01*
X244119047Y-146800000D01*
X243785714Y-146800000D01*
X243595238Y-146766666D01*
X243500000Y-146700000D01*
X243452380Y-146633333D01*
X243452380Y-146033333D02*
X244261904Y-146033333D01*
X244357142Y-146000000D01*
X244404761Y-145966666D01*
X244452380Y-145900000D01*
X244452380Y-145766666D01*
X244404761Y-145700000D01*
X244357142Y-145666666D01*
X244261904Y-145633333D01*
X243452380Y-145633333D01*
X243452380Y-145400000D02*
X243452380Y-145000000D01*
X244452380Y-145200000D02*
X243452380Y-145200000D01*
X244452380Y-144400000D02*
X244452380Y-144800000D01*
X244452380Y-144600000D02*
X243452380Y-144600000D01*
X243595238Y-144666666D01*
X243690476Y-144733333D01*
X243738095Y-144800000D01*
X244547619Y-144266666D02*
X244547619Y-143733333D01*
X244452380Y-143200000D02*
X244452380Y-143600000D01*
X244452380Y-143400000D02*
X243452380Y-143400000D01*
X243595238Y-143466666D01*
X243690476Y-143533333D01*
X243738095Y-143600000D01*
X243452380Y-141700000D02*
X243452380Y-141566666D01*
X243500000Y-141500000D01*
X243595238Y-141433333D01*
X243785714Y-141400000D01*
X244119047Y-141400000D01*
X244309523Y-141433333D01*
X244404761Y-141500000D01*
X244452380Y-141566666D01*
X244452380Y-141700000D01*
X244404761Y-141766666D01*
X244309523Y-141833333D01*
X244119047Y-141866666D01*
X243785714Y-141866666D01*
X243595238Y-141833333D01*
X243500000Y-141766666D01*
X243452380Y-141700000D01*
X243452380Y-141100000D02*
X244261904Y-141100000D01*
X244357142Y-141066666D01*
X244404761Y-141033333D01*
X244452380Y-140966666D01*
X244452380Y-140833333D01*
X244404761Y-140766666D01*
X244357142Y-140733333D01*
X244261904Y-140700000D01*
X243452380Y-140700000D01*
X243452380Y-140466666D02*
X243452380Y-140066666D01*
X244452380Y-140266666D02*
X243452380Y-140266666D01*
X244452380Y-139466666D02*
X244452380Y-139866666D01*
X244452380Y-139666666D02*
X243452380Y-139666666D01*
X243595238Y-139733333D01*
X243690476Y-139800000D01*
X243738095Y-139866666D01*
X244547619Y-139333333D02*
X244547619Y-138800000D01*
X243547619Y-138666666D02*
X243500000Y-138633333D01*
X243452380Y-138566666D01*
X243452380Y-138400000D01*
X243500000Y-138333333D01*
X243547619Y-138300000D01*
X243642857Y-138266666D01*
X243738095Y-138266666D01*
X243880952Y-138300000D01*
X244452380Y-138700000D01*
X244452380Y-138266666D01*
X243452380Y-136766666D02*
X243452380Y-136633333D01*
X243500000Y-136566666D01*
X243595238Y-136500000D01*
X243785714Y-136466666D01*
X244119047Y-136466666D01*
X244309523Y-136500000D01*
X244404761Y-136566666D01*
X244452380Y-136633333D01*
X244452380Y-136766666D01*
X244404761Y-136833333D01*
X244309523Y-136900000D01*
X244119047Y-136933333D01*
X243785714Y-136933333D01*
X243595238Y-136900000D01*
X243500000Y-136833333D01*
X243452380Y-136766666D01*
X243452380Y-136166666D02*
X244261904Y-136166666D01*
X244357142Y-136133333D01*
X244404761Y-136100000D01*
X244452380Y-136033333D01*
X244452380Y-135900000D01*
X244404761Y-135833333D01*
X244357142Y-135800000D01*
X244261904Y-135766666D01*
X243452380Y-135766666D01*
X243452380Y-135533333D02*
X243452380Y-135133333D01*
X244452380Y-135333333D02*
X243452380Y-135333333D01*
X243547619Y-134933333D02*
X243500000Y-134900000D01*
X243452380Y-134833333D01*
X243452380Y-134666666D01*
X243500000Y-134600000D01*
X243547619Y-134566666D01*
X243642857Y-134533333D01*
X243738095Y-134533333D01*
X243880952Y-134566666D01*
X244452380Y-134966666D01*
X244452380Y-134533333D01*
X244547619Y-134400000D02*
X244547619Y-133866666D01*
X244452380Y-133333333D02*
X244452380Y-133733333D01*
X244452380Y-133533333D02*
X243452380Y-133533333D01*
X243595238Y-133600000D01*
X243690476Y-133666666D01*
X243738095Y-133733333D01*
X243452380Y-131833333D02*
X243452380Y-131700000D01*
X243500000Y-131633333D01*
X243595238Y-131566666D01*
X243785714Y-131533333D01*
X244119047Y-131533333D01*
X244309523Y-131566666D01*
X244404761Y-131633333D01*
X244452380Y-131700000D01*
X244452380Y-131833333D01*
X244404761Y-131900000D01*
X244309523Y-131966666D01*
X244119047Y-132000000D01*
X243785714Y-132000000D01*
X243595238Y-131966666D01*
X243500000Y-131900000D01*
X243452380Y-131833333D01*
X243452380Y-131233333D02*
X244261904Y-131233333D01*
X244357142Y-131200000D01*
X244404761Y-131166666D01*
X244452380Y-131100000D01*
X244452380Y-130966666D01*
X244404761Y-130900000D01*
X244357142Y-130866666D01*
X244261904Y-130833333D01*
X243452380Y-130833333D01*
X243452380Y-130600000D02*
X243452380Y-130200000D01*
X244452380Y-130400000D02*
X243452380Y-130400000D01*
X243547619Y-130000000D02*
X243500000Y-129966666D01*
X243452380Y-129900000D01*
X243452380Y-129733333D01*
X243500000Y-129666666D01*
X243547619Y-129633333D01*
X243642857Y-129600000D01*
X243738095Y-129600000D01*
X243880952Y-129633333D01*
X244452380Y-130033333D01*
X244452380Y-129600000D01*
X244547619Y-129466666D02*
X244547619Y-128933333D01*
X243547619Y-128800000D02*
X243500000Y-128766666D01*
X243452380Y-128700000D01*
X243452380Y-128533333D01*
X243500000Y-128466666D01*
X243547619Y-128433333D01*
X243642857Y-128400000D01*
X243738095Y-128400000D01*
X243880952Y-128433333D01*
X244452380Y-128833333D01*
X244452380Y-128400000D01*
D13*
X200501720Y-114702920D02*
X200693360Y-114335920D01*
X199825720Y-115912760D02*
X200054920Y-115549720D01*
X199462000Y-116236520D02*
X199610000Y-116158000D01*
X200846560Y-114083760D02*
X200932720Y-113999160D01*
X199379560Y-116218320D02*
X199420800Y-116227440D01*
X200689440Y-115929480D02*
X200709840Y-116027160D01*
X199152560Y-114815320D02*
X199163640Y-115314040D01*
X199150840Y-114319640D02*
X199152560Y-114815320D01*
X200932720Y-113999160D02*
X200948560Y-114005200D01*
X200284520Y-115126920D02*
X200501720Y-114702920D01*
X199280640Y-116079880D02*
X199379560Y-116218320D01*
X200735440Y-116036240D02*
X200772560Y-116020200D01*
X200709840Y-116027160D02*
X200726360Y-116033000D01*
X200958800Y-114339640D02*
X200903240Y-114657520D01*
X200948560Y-114005200D02*
X200963720Y-114010880D01*
X199610000Y-116158000D02*
X199825720Y-115912760D01*
X200693360Y-114335920D02*
X200846560Y-114083760D01*
X199420800Y-116227440D02*
X199462000Y-116236520D01*
X200706400Y-115697240D02*
X200689440Y-115929480D01*
X199163640Y-115314040D02*
X199200520Y-115755440D01*
X200054920Y-115549720D02*
X200284520Y-115126920D01*
X200726360Y-116033000D02*
X200735440Y-116036240D01*
X200759360Y-115379320D02*
X200706400Y-115697240D01*
X200830960Y-115018440D02*
X200759360Y-115379320D01*
X200963720Y-114010880D02*
X200979640Y-114107880D01*
X199200520Y-115755440D02*
X199280640Y-116079880D01*
X200903240Y-114657520D02*
X200830960Y-115018440D01*
X200979640Y-114107880D02*
X200958800Y-114339640D01*
X199960720Y-114413640D02*
X199448800Y-115296000D01*
X201281920Y-116533000D02*
X201310800Y-116548000D01*
X203161920Y-114766040D02*
X202956400Y-115221360D01*
X201728280Y-116210480D02*
X202052960Y-115811200D01*
X201247640Y-116019520D02*
X201229160Y-116191200D01*
X201107640Y-115597200D02*
X201171440Y-115543000D01*
X201226360Y-115533000D02*
X201239360Y-115537320D01*
X200830280Y-115964200D02*
X200896280Y-115879080D01*
X200966560Y-115779920D02*
X201038200Y-115681000D01*
X198149080Y-115774520D02*
X198222920Y-115457040D01*
X199448800Y-115296000D02*
X199027560Y-115975480D01*
X201281920Y-111977440D02*
X201105680Y-112312240D01*
X202956400Y-115221360D02*
X202708360Y-115767600D01*
X201310800Y-116548000D02*
X201460520Y-116473320D01*
X198028440Y-116775600D02*
X198026240Y-116585280D01*
X201837440Y-117810760D02*
X201730000Y-118083760D01*
X203393000Y-114088520D02*
X203403240Y-114094200D01*
X201266080Y-115587640D02*
X201276240Y-115699200D01*
X201239360Y-115537320D02*
X201266080Y-115587640D01*
X201038200Y-115681000D02*
X201107640Y-115597200D01*
X198222920Y-115457040D02*
X198307960Y-115132160D01*
X203393000Y-114185320D02*
X203311640Y-114416040D01*
X198026240Y-116585280D02*
X198047720Y-116348320D01*
X198240440Y-116952920D02*
X198139560Y-116987640D01*
X201276240Y-115699200D02*
X201266520Y-115849360D01*
X198096800Y-116969600D02*
X198056840Y-116909480D01*
X198139560Y-116987640D02*
X198115240Y-116977440D01*
X201105680Y-112312240D02*
X200569440Y-113312720D01*
X203311640Y-114416040D02*
X203161920Y-114766040D01*
X202401920Y-115341600D02*
X202742840Y-114868040D01*
X202742840Y-114868040D02*
X203043400Y-114457280D01*
X200838560Y-120776920D02*
X200689680Y-121322480D01*
X201171440Y-115543000D02*
X201214840Y-115528880D01*
X202708360Y-115767600D02*
X202430560Y-116390800D01*
X201266520Y-115849360D02*
X201247640Y-116019520D01*
X201428400Y-118911040D02*
X201097920Y-119906040D01*
X201266080Y-116524760D02*
X201281920Y-116533000D01*
X201214840Y-115528880D02*
X201226360Y-115533000D01*
X198089840Y-116074880D02*
X198149080Y-115774520D01*
X198047720Y-116348320D02*
X198089840Y-116074880D01*
X203379120Y-114080720D02*
X203393000Y-114088520D01*
X203270840Y-114175160D02*
X203379120Y-114080720D01*
X198056840Y-116909480D02*
X198028440Y-116775600D01*
X201730000Y-118083760D02*
X201428400Y-118911040D01*
X201222000Y-116346360D02*
X201236120Y-116466360D01*
X202052960Y-115811200D02*
X202401920Y-115341600D01*
X198115240Y-116977440D02*
X198096800Y-116969600D01*
X198690120Y-116467640D02*
X198429920Y-116788200D01*
X199027560Y-115975480D02*
X198690120Y-116467640D01*
X200689680Y-121322480D02*
X200643000Y-121505200D01*
X200772560Y-116020200D02*
X200830280Y-115964200D01*
X201097920Y-119906040D02*
X200838560Y-120776920D01*
X201909720Y-117626320D02*
X201837440Y-117810760D01*
X203043400Y-114457280D02*
X203270840Y-114175160D01*
X202135840Y-117076600D02*
X201909720Y-117626320D01*
X201460520Y-116473320D02*
X201728280Y-116210480D01*
X200896280Y-115879080D02*
X200966560Y-115779920D01*
X202430560Y-116390800D02*
X202135840Y-117076600D01*
X201229160Y-116191200D02*
X201222000Y-116346360D01*
X201236120Y-116466360D02*
X201266080Y-116524760D01*
X200569440Y-113312720D02*
X199960720Y-114413640D01*
X203403240Y-114094200D02*
X203393000Y-114185320D01*
X198429920Y-116788200D02*
X198240440Y-116952920D01*
X202135840Y-117076600D02*
X201909720Y-117626320D01*
X200838560Y-120776920D02*
X200689680Y-121322480D01*
X201097920Y-119906040D02*
X200838560Y-120776920D01*
X202401920Y-115341600D02*
X202742840Y-114868040D01*
X203311640Y-114416040D02*
X203161920Y-114766040D01*
X203403240Y-114094200D02*
X203393000Y-114185320D01*
X200689680Y-121322480D02*
X200643000Y-121505200D01*
X202430560Y-116390800D02*
X202135840Y-117076600D01*
X202708360Y-115767600D02*
X202430560Y-116390800D01*
X203379120Y-114080720D02*
X203393000Y-114088520D01*
X203393000Y-114185320D02*
X203311640Y-114416040D01*
X203161920Y-114766040D02*
X202956400Y-115221360D01*
X203393000Y-114088520D02*
X203403240Y-114094200D01*
X203043400Y-114457280D02*
X203270840Y-114175160D01*
X201730000Y-118083760D02*
X201428400Y-118911040D01*
X202956400Y-115221360D02*
X202708360Y-115767600D01*
X202742840Y-114868040D02*
X203043400Y-114457280D01*
X201428400Y-118911040D02*
X201097920Y-119906040D01*
X203270840Y-114175160D02*
X203379120Y-114080720D01*
X201837440Y-117810760D02*
X201730000Y-118083760D01*
X201909720Y-117626320D02*
X201837440Y-117810760D01*
X198965520Y-113479360D02*
X199016720Y-113447240D01*
X200689440Y-115929480D02*
X200709840Y-116027160D01*
X200830280Y-115964200D02*
X200896280Y-115879080D01*
X202052960Y-115811200D02*
X202401920Y-115341600D01*
X201728280Y-116210480D02*
X202052960Y-115811200D01*
X201460520Y-116473320D02*
X201728280Y-116210480D01*
X199462000Y-116236520D02*
X199610000Y-116158000D01*
X200958800Y-114339640D02*
X200903240Y-114657520D01*
X201107640Y-115597200D02*
X201171440Y-115543000D01*
X198401440Y-114809880D02*
X198500000Y-114500000D01*
X200948560Y-114005200D02*
X200963720Y-114010880D01*
X201310800Y-116548000D02*
X201460520Y-116473320D01*
X201281920Y-116533000D02*
X201310800Y-116548000D01*
X201222000Y-116346360D02*
X201236120Y-116466360D01*
X199016720Y-113447240D02*
X199031920Y-113449640D01*
X201226360Y-115533000D02*
X201239360Y-115537320D01*
X201229160Y-116191200D02*
X201222000Y-116346360D01*
X199141520Y-113886920D02*
X199150840Y-114319640D01*
X201266520Y-115849360D02*
X201247640Y-116019520D01*
X201276240Y-115699200D02*
X201266520Y-115849360D01*
X199150840Y-114319640D02*
X199152560Y-114815320D01*
X200726360Y-116033000D02*
X200735440Y-116036240D01*
X201266080Y-115587640D02*
X201276240Y-115699200D01*
X198307960Y-115132160D02*
X198401440Y-114809880D01*
X201038200Y-115681000D02*
X201107640Y-115597200D01*
X200772560Y-116020200D02*
X200830280Y-115964200D01*
X200735440Y-116036240D02*
X200772560Y-116020200D01*
X200709840Y-116027160D02*
X200726360Y-116033000D01*
X200706400Y-115697240D02*
X200689440Y-115929480D01*
X200759360Y-115379320D02*
X200706400Y-115697240D01*
X200693360Y-114335920D02*
X200846560Y-114083760D01*
X199825720Y-115912760D02*
X200054920Y-115549720D01*
X199379560Y-116218320D02*
X199420800Y-116227440D01*
X199280640Y-116079880D02*
X199379560Y-116218320D01*
X198700960Y-113956600D02*
X198797080Y-113742600D01*
X200846560Y-114083760D02*
X200932720Y-113999160D01*
X200501720Y-114702920D02*
X200693360Y-114335920D01*
X198600920Y-114212440D02*
X198700960Y-113956600D01*
X198797080Y-113742600D02*
X198886280Y-113580320D01*
X201239360Y-115537320D02*
X201266080Y-115587640D01*
X200903240Y-114657520D02*
X200830960Y-115018440D01*
X199152560Y-114815320D02*
X199163640Y-115314040D01*
X201266080Y-116524760D02*
X201281920Y-116533000D01*
X201236120Y-116466360D02*
X201266080Y-116524760D01*
X199031920Y-113449640D02*
X199055120Y-113453080D01*
X198500000Y-114500000D02*
X198600920Y-114212440D01*
X201247640Y-116019520D02*
X201229160Y-116191200D01*
X198886280Y-113580320D02*
X198965520Y-113479360D01*
X201214840Y-115528880D02*
X201226360Y-115533000D01*
X200896280Y-115879080D02*
X200966560Y-115779920D01*
X199420800Y-116227440D02*
X199462000Y-116236520D01*
X199107400Y-113576800D02*
X199141520Y-113886920D01*
X200979640Y-114107880D02*
X200958800Y-114339640D01*
X200284520Y-115126920D02*
X200501720Y-114702920D01*
X199610000Y-116158000D02*
X199825720Y-115912760D01*
X199200520Y-115755440D02*
X199280640Y-116079880D01*
X199163640Y-115314040D02*
X199200520Y-115755440D01*
X201171440Y-115543000D02*
X201214840Y-115528880D01*
X200932720Y-113999160D02*
X200948560Y-114005200D01*
X200966560Y-115779920D02*
X201038200Y-115681000D01*
X200830960Y-115018440D02*
X200759360Y-115379320D01*
X200963720Y-114010880D02*
X200979640Y-114107880D01*
X199055120Y-113453080D02*
X199107400Y-113576800D01*
X200054920Y-115549720D02*
X200284520Y-115126920D01*
X198240440Y-116952920D02*
X198139560Y-116987640D01*
X199027560Y-115975480D02*
X198690120Y-116467640D01*
X199448800Y-115296000D02*
X199027560Y-115975480D01*
X199960720Y-114413640D02*
X199448800Y-115296000D01*
X200569440Y-113312720D02*
X199960720Y-114413640D01*
X201105680Y-112312240D02*
X200569440Y-113312720D01*
X201281920Y-111977440D02*
X201105680Y-112312240D01*
X198690120Y-116467640D02*
X198429920Y-116788200D01*
X198429920Y-116788200D02*
X198240440Y-116952920D01*
X198139560Y-116987640D02*
X198115240Y-116977440D01*
X198047720Y-116348320D02*
X198089840Y-116074880D01*
X198600920Y-114212440D02*
X198700960Y-113956600D01*
X198149080Y-115774520D02*
X198222920Y-115457040D01*
X198028440Y-116775600D02*
X198026240Y-116585280D01*
X199016720Y-113447240D02*
X199031920Y-113449640D01*
X199031920Y-113449640D02*
X199055120Y-113453080D01*
X198886280Y-113580320D02*
X198965520Y-113479360D01*
X198700960Y-113956600D02*
X198797080Y-113742600D01*
X198401440Y-114809880D02*
X198500000Y-114500000D01*
X198222920Y-115457040D02*
X198307960Y-115132160D01*
X198307960Y-115132160D02*
X198401440Y-114809880D01*
X198026240Y-116585280D02*
X198047720Y-116348320D01*
X198056840Y-116909480D02*
X198028440Y-116775600D01*
X198096800Y-116969600D02*
X198056840Y-116909480D01*
X199141520Y-113886920D02*
X199150840Y-114319640D01*
X199055120Y-113453080D02*
X199107400Y-113576800D01*
X198115240Y-116977440D02*
X198096800Y-116969600D01*
X199107400Y-113576800D02*
X199141520Y-113886920D01*
X198965520Y-113479360D02*
X199016720Y-113447240D01*
X198797080Y-113742600D02*
X198886280Y-113580320D01*
X198089840Y-116074880D02*
X198149080Y-115774520D01*
X198500000Y-114500000D02*
X198600920Y-114212440D01*
D10*
X237119047Y-121571428D02*
X237880952Y-121571428D01*
X237500000Y-121952380D02*
X237500000Y-121190476D01*
X237119047Y-115571428D02*
X237880952Y-115571428D01*
X237500000Y-115952380D02*
X237500000Y-115190476D01*
X207119047Y-80571428D02*
X207880952Y-80571428D01*
X207500000Y-80952380D02*
X207500000Y-80190476D01*
X200119047Y-80571428D02*
X200880952Y-80571428D01*
X200500000Y-80952380D02*
X200500000Y-80190476D01*
D11*
%TO.C,J3*%
X245200000Y-157250000D02*
X257800000Y-157250000D01*
X257800000Y-127890000D02*
X257800000Y-157250000D01*
X245200000Y-127890000D02*
X257800000Y-127890000D01*
X245200000Y-157250000D02*
X245200000Y-127890000D01*
%TO.C,ESP32_Gateway_revG*%
X179156000Y-93534000D02*
X179156000Y-157034000D01*
X229956000Y-157034000D02*
X179156000Y-157034000D01*
X229956000Y-93534000D02*
X229956000Y-157034000D01*
D14*
X186816000Y-95830000D02*
X186562000Y-96084000D01*
X179450000Y-96084000D02*
X179196000Y-95830000D01*
X184530000Y-93544000D02*
X186562000Y-93544000D01*
X189356000Y-95830000D02*
X189102000Y-96084000D01*
X194182000Y-93544000D02*
X194436000Y-93798000D01*
X191896000Y-95830000D02*
X191642000Y-96084000D01*
X187070000Y-93544000D02*
X189102000Y-93544000D01*
X181736000Y-93798000D02*
X181990000Y-93544000D01*
X189610000Y-93544000D02*
X191642000Y-93544000D01*
X192150000Y-96084000D02*
X191896000Y-95830000D01*
X189102000Y-96084000D02*
X187070000Y-96084000D01*
X186816000Y-93798000D02*
X187070000Y-93544000D01*
X179196000Y-93544000D02*
X179196000Y-96084000D01*
X194182000Y-93544000D02*
X194436000Y-93798000D01*
X181482000Y-96084000D02*
X179704000Y-96084000D01*
X184276000Y-93798000D02*
X184530000Y-93544000D01*
X191642000Y-96084000D02*
X189610000Y-96084000D01*
X184022000Y-96084000D02*
X181990000Y-96084000D01*
X181990000Y-93544000D02*
X184022000Y-93544000D01*
X189102000Y-93544000D02*
X189356000Y-93798000D01*
X181482000Y-93544000D02*
X181736000Y-93798000D01*
X189356000Y-93798000D02*
X189610000Y-93544000D01*
X194436000Y-95830000D02*
X194182000Y-96084000D01*
X191896000Y-93798000D02*
X192150000Y-93544000D01*
X179196000Y-93544000D02*
X179450000Y-93544000D01*
X179450000Y-93544000D02*
X181482000Y-93544000D01*
X192150000Y-93544000D02*
X194182000Y-93544000D01*
X186562000Y-96084000D02*
X184530000Y-96084000D01*
X179196000Y-93798000D02*
X179450000Y-93544000D01*
X184022000Y-96084000D02*
X184276000Y-95830000D01*
X184022000Y-93544000D02*
X184276000Y-93798000D01*
X187070000Y-96084000D02*
X186816000Y-95830000D01*
X194182000Y-96084000D02*
X192150000Y-96084000D01*
X179704000Y-96084000D02*
X179196000Y-96084000D01*
X186562000Y-93544000D02*
X186816000Y-93798000D01*
X189610000Y-96084000D02*
X189356000Y-95830000D01*
X194436000Y-95830000D02*
X194182000Y-96084000D01*
X191642000Y-93544000D02*
X191896000Y-93798000D01*
X184276000Y-95830000D02*
X184530000Y-96084000D01*
X181736000Y-95830000D02*
X181482000Y-96084000D01*
X181990000Y-96084000D02*
X181736000Y-95830000D01*
X202310000Y-93544000D02*
X204342000Y-93544000D01*
X199770000Y-96084000D02*
X199516000Y-95830000D01*
X209422000Y-93544000D02*
X209676000Y-93798000D01*
X197230000Y-93544000D02*
X199262000Y-93544000D01*
X204342000Y-93544000D02*
X204596000Y-93798000D01*
X199516000Y-95830000D02*
X199262000Y-96084000D01*
X199262000Y-93544000D02*
X199516000Y-93798000D01*
X194436000Y-93798000D02*
X194690000Y-93544000D01*
X207390000Y-93544000D02*
X209422000Y-93544000D01*
X199262000Y-96084000D02*
X197230000Y-96084000D01*
X197230000Y-93544000D02*
X199262000Y-93544000D01*
X196976000Y-95830000D02*
X196722000Y-96084000D01*
X199516000Y-95830000D02*
X199262000Y-96084000D01*
X207390000Y-96084000D02*
X207136000Y-95830000D01*
X209930000Y-93544000D02*
X211962000Y-93544000D01*
X194690000Y-93544000D02*
X196722000Y-93544000D01*
X204596000Y-95830000D02*
X204342000Y-96084000D01*
X202310000Y-96084000D02*
X202056000Y-95830000D01*
X206882000Y-93544000D02*
X207136000Y-93798000D01*
X209422000Y-96084000D02*
X207390000Y-96084000D01*
X209930000Y-96084000D02*
X209676000Y-95830000D01*
X197230000Y-96084000D02*
X196976000Y-95830000D01*
X194690000Y-96084000D02*
X194436000Y-95830000D01*
X204342000Y-96084000D02*
X202310000Y-96084000D01*
X209676000Y-95830000D02*
X209422000Y-96084000D01*
X207390000Y-93544000D02*
X209422000Y-93544000D01*
X201802000Y-93544000D02*
X202056000Y-93798000D01*
X202310000Y-96084000D02*
X202056000Y-95830000D01*
X204850000Y-93544000D02*
X206882000Y-93544000D01*
X207390000Y-96084000D02*
X207136000Y-95830000D01*
X204596000Y-93798000D02*
X204850000Y-93544000D01*
X211962000Y-96084000D02*
X209930000Y-96084000D01*
X209422000Y-96084000D02*
X207390000Y-96084000D01*
X204850000Y-96084000D02*
X204596000Y-95830000D01*
X201802000Y-96084000D02*
X199770000Y-96084000D01*
X197230000Y-96084000D02*
X196976000Y-95830000D01*
X214502000Y-93544000D02*
X214756000Y-93798000D01*
X196722000Y-96084000D02*
X194690000Y-96084000D01*
X199262000Y-96084000D02*
X197230000Y-96084000D01*
X209422000Y-93544000D02*
X209676000Y-93798000D01*
X202056000Y-93798000D02*
X202310000Y-93544000D01*
X214756000Y-95830000D02*
X214502000Y-96084000D01*
X199516000Y-93798000D02*
X199770000Y-93544000D01*
X196722000Y-93544000D02*
X196976000Y-93798000D01*
X207136000Y-93798000D02*
X207390000Y-93544000D01*
X204342000Y-96084000D02*
X202310000Y-96084000D01*
X207136000Y-93798000D02*
X207390000Y-93544000D01*
X207136000Y-95830000D02*
X206882000Y-96084000D01*
X209676000Y-95830000D02*
X209422000Y-96084000D01*
X202056000Y-95830000D02*
X201802000Y-96084000D01*
X196976000Y-93798000D02*
X197230000Y-93544000D01*
X199770000Y-93544000D02*
X201802000Y-93544000D01*
X206882000Y-96084000D02*
X204850000Y-96084000D01*
X204596000Y-95830000D02*
X204342000Y-96084000D01*
X202056000Y-93798000D02*
X202310000Y-93544000D01*
X202310000Y-93544000D02*
X204342000Y-93544000D01*
X209676000Y-93798000D02*
X209930000Y-93544000D01*
X196976000Y-93798000D02*
X197230000Y-93544000D01*
X204342000Y-93544000D02*
X204596000Y-93798000D01*
X194182000Y-96084000D02*
X192150000Y-96084000D01*
X192150000Y-93544000D02*
X194182000Y-93544000D01*
X191896000Y-93798000D02*
X192150000Y-93544000D01*
X192150000Y-96084000D02*
X191896000Y-95830000D01*
X199262000Y-93544000D02*
X199516000Y-93798000D01*
X222630000Y-93544000D02*
X224662000Y-93544000D01*
X217550000Y-96084000D02*
X217296000Y-95830000D01*
X217296000Y-93798000D02*
X217550000Y-93544000D01*
X217296000Y-95830000D02*
X217042000Y-96084000D01*
X222122000Y-96084000D02*
X220090000Y-96084000D01*
X217042000Y-93544000D02*
X217296000Y-93798000D01*
X219582000Y-96084000D02*
X217550000Y-96084000D01*
X217042000Y-96084000D02*
X215010000Y-96084000D01*
X224916000Y-95830000D02*
X224662000Y-96084000D01*
X215010000Y-96084000D02*
X214756000Y-95830000D01*
X229742000Y-96084000D02*
X227710000Y-96084000D01*
X225170000Y-93544000D02*
X227202000Y-93544000D01*
X229742000Y-93544000D02*
X229996000Y-93798000D01*
X222376000Y-93798000D02*
X222630000Y-93544000D01*
X224662000Y-93544000D02*
X224916000Y-93798000D01*
X229996000Y-93798000D02*
X229996000Y-95830000D01*
X224662000Y-96084000D02*
X222630000Y-96084000D01*
X227710000Y-96084000D02*
X227456000Y-95830000D01*
X222630000Y-93544000D02*
X224662000Y-93544000D01*
X215010000Y-93544000D02*
X217042000Y-93544000D01*
X227456000Y-93798000D02*
X227710000Y-93544000D01*
X212470000Y-93544000D02*
X214502000Y-93544000D01*
X227456000Y-95830000D02*
X227202000Y-96084000D01*
X212216000Y-93798000D02*
X212470000Y-93544000D01*
X229742000Y-96084000D02*
X227710000Y-96084000D01*
X217550000Y-96084000D02*
X217296000Y-95830000D01*
X212216000Y-93798000D02*
X212470000Y-93544000D01*
X217296000Y-93798000D02*
X217550000Y-93544000D01*
X224916000Y-95830000D02*
X224662000Y-96084000D01*
X219582000Y-93544000D02*
X219836000Y-93798000D01*
X217550000Y-93544000D02*
X219582000Y-93544000D01*
X227710000Y-93544000D02*
X229742000Y-93544000D01*
X225170000Y-96084000D02*
X224916000Y-95830000D01*
X227456000Y-93798000D02*
X227710000Y-93544000D01*
X227710000Y-96084000D02*
X227456000Y-95830000D01*
X222630000Y-96084000D02*
X222376000Y-95830000D01*
X214502000Y-96084000D02*
X212470000Y-96084000D01*
X227202000Y-93544000D02*
X227456000Y-93798000D01*
X219582000Y-96084000D02*
X217550000Y-96084000D01*
X219836000Y-95830000D02*
X219582000Y-96084000D01*
X222122000Y-93544000D02*
X222376000Y-93798000D01*
X212216000Y-95830000D02*
X211962000Y-96084000D01*
X224662000Y-96084000D02*
X222630000Y-96084000D01*
X211962000Y-93544000D02*
X212216000Y-93798000D01*
X212470000Y-93544000D02*
X214502000Y-93544000D01*
X219836000Y-95830000D02*
X219582000Y-96084000D01*
X227710000Y-93544000D02*
X229742000Y-93544000D01*
X222376000Y-95830000D02*
X222122000Y-96084000D01*
X222376000Y-93798000D02*
X222630000Y-93544000D01*
X227202000Y-96084000D02*
X225170000Y-96084000D01*
X229742000Y-93544000D02*
X229996000Y-93798000D01*
X222630000Y-96084000D02*
X222376000Y-95830000D01*
X229996000Y-95830000D02*
X229742000Y-96084000D01*
X219582000Y-93544000D02*
X219836000Y-93798000D01*
X212470000Y-96084000D02*
X212216000Y-95830000D01*
X229996000Y-95830000D02*
X229742000Y-96084000D01*
X224662000Y-93544000D02*
X224916000Y-93798000D01*
X224916000Y-93798000D02*
X225170000Y-93544000D01*
X212470000Y-96084000D02*
X212216000Y-95830000D01*
X214502000Y-93544000D02*
X214756000Y-93798000D01*
X214756000Y-95830000D02*
X214502000Y-96084000D01*
X214502000Y-96084000D02*
X212470000Y-96084000D01*
X217550000Y-93544000D02*
X219582000Y-93544000D01*
X214756000Y-93798000D02*
X215010000Y-93544000D01*
X220090000Y-93544000D02*
X222122000Y-93544000D01*
X219836000Y-93798000D02*
X220090000Y-93544000D01*
X220090000Y-96084000D02*
X219836000Y-95830000D01*
D11*
X179156000Y-93534000D02*
X229956000Y-93534000D01*
%TO.C,D4*%
X197170000Y-80370000D02*
X199830000Y-80370000D01*
X197170000Y-77770000D02*
X197170000Y-80370000D01*
X199830000Y-77770000D02*
X199830000Y-80370000D01*
X197170000Y-77770000D02*
X199830000Y-77770000D01*
X197170000Y-76500000D02*
X197170000Y-75170000D01*
X197170000Y-75170000D02*
X198500000Y-75170000D01*
%TO.C,R8*%
X204220000Y-72940000D02*
X204220000Y-73420000D01*
X204220000Y-73420000D02*
X194080000Y-73420000D01*
X194080000Y-73420000D02*
X194080000Y-72940000D01*
X204220000Y-70060000D02*
X204220000Y-69580000D01*
X204220000Y-69580000D02*
X194080000Y-69580000D01*
X194080000Y-69580000D02*
X194080000Y-70060000D01*
%TO.C,Q2*%
X252650000Y-76970000D02*
X252650000Y-80570000D01*
X252661522Y-80608478D02*
G75*
G03*
X257100000Y-78770000I1838478J1838478D01*
G01*
X252661522Y-76931522D02*
G75*
G02*
X257100000Y-78770000I1838478J-1838478D01*
G01*
%TO.C,Q1*%
X234650000Y-76970000D02*
X234650000Y-80570000D01*
X234661522Y-76931522D02*
G75*
G02*
X239100000Y-78770000I1838478J-1838478D01*
G01*
X234661522Y-80608478D02*
G75*
G03*
X239100000Y-78770000I1838478J1838478D01*
G01*
%TO.C,U3*%
X256830000Y-110310000D02*
X256830000Y-108660000D01*
X256830000Y-108660000D02*
X249090000Y-108660000D01*
X249090000Y-108660000D02*
X249090000Y-113960000D01*
X249090000Y-113960000D02*
X256830000Y-113960000D01*
X256830000Y-113960000D02*
X256830000Y-112310000D01*
X256830000Y-112310000D02*
G75*
G02*
X256830000Y-110310000I0J1000000D01*
G01*
%TO.C,C2*%
X215500000Y-87100000D02*
X215500000Y-88950000D01*
X215500000Y-86400000D02*
X215500000Y-84500000D01*
X216500000Y-87100000D02*
X214500000Y-87100000D01*
X214500000Y-86400000D02*
X216500000Y-86400000D01*
X217500000Y-84500000D02*
X217500000Y-89000000D01*
X213500000Y-89000000D02*
X213500000Y-84500000D01*
X217500000Y-89000000D02*
X213500000Y-89000000D01*
X217500000Y-84500000D02*
X213500000Y-84500000D01*
%TO.C,D2*%
X237620000Y-85190000D02*
X235380000Y-85190000D01*
X235380000Y-85190000D02*
X235380000Y-89430000D01*
X235380000Y-89430000D02*
X237620000Y-89430000D01*
X237620000Y-89430000D02*
X237620000Y-85190000D01*
X236500000Y-84540000D02*
X236500000Y-85190000D01*
X236500000Y-90080000D02*
X236500000Y-89430000D01*
X237620000Y-85910000D02*
X235380000Y-85910000D01*
X237620000Y-86030000D02*
X235380000Y-86030000D01*
X237620000Y-85790000D02*
X235380000Y-85790000D01*
%TO.C,K2*%
X246827000Y-81310000D02*
X246827000Y-82326000D01*
X244922000Y-82326000D02*
X246827000Y-82326000D01*
X244922000Y-81310000D02*
X244922000Y-82326000D01*
X246827000Y-81310000D02*
X244922000Y-81310000D01*
X247462000Y-81818000D02*
X246827000Y-81818000D01*
X247462000Y-81183000D02*
X247462000Y-81818000D01*
X244262000Y-81818000D02*
X244922000Y-81818000D01*
X244262000Y-81183000D02*
X244262000Y-81818000D01*
X246446000Y-81310000D02*
X245811000Y-82326000D01*
X242100000Y-76200000D02*
X249900000Y-76200000D01*
X249900000Y-76200000D02*
X249900000Y-88900000D01*
X249900000Y-88900000D02*
X242100000Y-88900000D01*
X242100000Y-88900000D02*
X242100000Y-76200000D01*
X241900000Y-78100000D02*
X241900000Y-76000000D01*
X241900000Y-76000000D02*
X244100000Y-76000000D01*
%TO.C,R1*%
X222780000Y-100060000D02*
X222780000Y-99580000D01*
X222780000Y-99580000D02*
X232920000Y-99580000D01*
X232920000Y-99580000D02*
X232920000Y-100060000D01*
X222780000Y-102940000D02*
X222780000Y-103420000D01*
X222780000Y-103420000D02*
X232920000Y-103420000D01*
X232920000Y-103420000D02*
X232920000Y-102940000D01*
%TO.C,R2*%
X222780000Y-106060000D02*
X222780000Y-105580000D01*
X222780000Y-105580000D02*
X232920000Y-105580000D01*
X232920000Y-105580000D02*
X232920000Y-106060000D01*
X222780000Y-108940000D02*
X222780000Y-109420000D01*
X222780000Y-109420000D02*
X232920000Y-109420000D01*
X232920000Y-109420000D02*
X232920000Y-108940000D01*
%TO.C,R4*%
X241420000Y-96580000D02*
X240940000Y-96580000D01*
X241420000Y-106720000D02*
X241420000Y-96580000D01*
X240940000Y-106720000D02*
X241420000Y-106720000D01*
X237580000Y-96580000D02*
X238060000Y-96580000D01*
X237580000Y-106720000D02*
X237580000Y-96580000D01*
X238060000Y-106720000D02*
X237580000Y-106720000D01*
%TO.C,K1*%
X223900000Y-76000000D02*
X226100000Y-76000000D01*
X223900000Y-78100000D02*
X223900000Y-76000000D01*
X224100000Y-88900000D02*
X224100000Y-76200000D01*
X231900000Y-88900000D02*
X224100000Y-88900000D01*
X231900000Y-76200000D02*
X231900000Y-88900000D01*
X224100000Y-76200000D02*
X231900000Y-76200000D01*
X228446000Y-81310000D02*
X227811000Y-82326000D01*
X226262000Y-81183000D02*
X226262000Y-81818000D01*
X226262000Y-81818000D02*
X226922000Y-81818000D01*
X229462000Y-81183000D02*
X229462000Y-81818000D01*
X229462000Y-81818000D02*
X228827000Y-81818000D01*
X228827000Y-81310000D02*
X226922000Y-81310000D01*
X226922000Y-81310000D02*
X226922000Y-82326000D01*
X226922000Y-82326000D02*
X228827000Y-82326000D01*
X228827000Y-81310000D02*
X228827000Y-82326000D01*
%TO.C,R5*%
X247420000Y-96580000D02*
X246940000Y-96580000D01*
X247420000Y-106720000D02*
X247420000Y-96580000D01*
X246940000Y-106720000D02*
X247420000Y-106720000D01*
X243580000Y-96580000D02*
X244060000Y-96580000D01*
X243580000Y-106720000D02*
X243580000Y-96580000D01*
X244060000Y-106720000D02*
X243580000Y-106720000D01*
%TO.C,J4*%
X189000000Y-72700000D02*
X180190000Y-72700000D01*
X180190000Y-72700000D02*
X180190000Y-63500000D01*
X180190000Y-63500000D02*
X189000000Y-63500000D01*
X189000000Y-72700000D02*
X189000000Y-63500000D01*
%TO.C,J2*%
X187730000Y-154170000D02*
X187730000Y-156830000D01*
X215730000Y-154170000D02*
X187730000Y-154170000D01*
X215730000Y-156830000D02*
X187730000Y-156830000D01*
X215730000Y-154170000D02*
X215730000Y-156830000D01*
X217000000Y-154170000D02*
X218330000Y-154170000D01*
X218330000Y-154170000D02*
X218330000Y-155500000D01*
D15*
%TO.C,ESP32_devkitV1*%
G36*
X203978000Y-152904000D02*
G01*
X198778000Y-152904000D01*
X198778000Y-149354000D01*
X203978000Y-149354000D01*
X203978000Y-152904000D01*
G37*
X203978000Y-152904000D02*
X198778000Y-152904000D01*
X198778000Y-149354000D01*
X203978000Y-149354000D01*
X203978000Y-152904000D01*
D11*
X186828000Y-100904000D02*
X186828000Y-152904000D01*
X215328000Y-152904000D02*
X186828000Y-152904000D01*
X215328000Y-100904000D02*
X215328000Y-152904000D01*
X186828000Y-100904000D02*
X215328000Y-100904000D01*
X189958000Y-108524000D02*
X189958000Y-144144000D01*
X187298000Y-144144000D02*
X189958000Y-144144000D01*
X187298000Y-108524000D02*
X187298000Y-144144000D01*
X187298000Y-105924000D02*
X188628000Y-105924000D01*
X187298000Y-108524000D02*
X189958000Y-108524000D01*
X187298000Y-107254000D02*
X187298000Y-105924000D01*
X214858000Y-108524000D02*
X214858000Y-144144000D01*
X212198000Y-144144000D02*
X214858000Y-144144000D01*
X212198000Y-108524000D02*
X212198000Y-144144000D01*
X212198000Y-105924000D02*
X213528000Y-105924000D01*
X212198000Y-108524000D02*
X214858000Y-108524000D01*
X212198000Y-107254000D02*
X212198000Y-105924000D01*
%TO.C,C1*%
X199500000Y-87100000D02*
X199500000Y-88950000D01*
X199500000Y-86400000D02*
X199500000Y-84500000D01*
X200500000Y-87100000D02*
X198500000Y-87100000D01*
X198500000Y-86400000D02*
X200500000Y-86400000D01*
X201500000Y-84500000D02*
X201500000Y-89000000D01*
X197500000Y-89000000D02*
X197500000Y-84500000D01*
X201500000Y-89000000D02*
X197500000Y-89000000D01*
X201500000Y-84500000D02*
X197500000Y-84500000D01*
%TO.C,C3*%
X185500000Y-127500000D02*
X181500000Y-127500000D01*
X185500000Y-132000000D02*
X181500000Y-132000000D01*
X181500000Y-132000000D02*
X181500000Y-127500000D01*
X185500000Y-127500000D02*
X185500000Y-132000000D01*
X182500000Y-129400000D02*
X184500000Y-129400000D01*
X184500000Y-130100000D02*
X182500000Y-130100000D01*
X183500000Y-129400000D02*
X183500000Y-127500000D01*
X183500000Y-130100000D02*
X183500000Y-131950000D01*
%TO.C,D1*%
X204170000Y-75170000D02*
X205500000Y-75170000D01*
X204170000Y-76500000D02*
X204170000Y-75170000D01*
X204170000Y-77770000D02*
X206830000Y-77770000D01*
X206830000Y-77770000D02*
X206830000Y-80370000D01*
X204170000Y-77770000D02*
X204170000Y-80370000D01*
X204170000Y-80370000D02*
X206830000Y-80370000D01*
%TO.C,D3*%
X255620000Y-85790000D02*
X253380000Y-85790000D01*
X255620000Y-86030000D02*
X253380000Y-86030000D01*
X255620000Y-85910000D02*
X253380000Y-85910000D01*
X254500000Y-90080000D02*
X254500000Y-89430000D01*
X254500000Y-84540000D02*
X254500000Y-85190000D01*
X255620000Y-89430000D02*
X255620000Y-85190000D01*
X253380000Y-89430000D02*
X255620000Y-89430000D01*
X253380000Y-85190000D02*
X253380000Y-89430000D01*
X255620000Y-85190000D02*
X253380000Y-85190000D01*
%TO.C,D5*%
X242830000Y-118170000D02*
X242830000Y-119500000D01*
X241500000Y-118170000D02*
X242830000Y-118170000D01*
X240230000Y-118170000D02*
X240230000Y-120830000D01*
X240230000Y-120830000D02*
X237630000Y-120830000D01*
X240230000Y-118170000D02*
X237630000Y-118170000D01*
X237630000Y-118170000D02*
X237630000Y-120830000D01*
%TO.C,D6*%
X237630000Y-112170000D02*
X237630000Y-114830000D01*
X240230000Y-112170000D02*
X237630000Y-112170000D01*
X240230000Y-114830000D02*
X237630000Y-114830000D01*
X240230000Y-112170000D02*
X240230000Y-114830000D01*
X241500000Y-112170000D02*
X242830000Y-112170000D01*
X242830000Y-112170000D02*
X242830000Y-113500000D01*
%TO.C,J1*%
X194130000Y-80900000D02*
X194130000Y-83000000D01*
X194430000Y-80600000D02*
X192830000Y-80600000D01*
X194430000Y-82300000D02*
X194430000Y-80600000D01*
X194130000Y-90100000D02*
X192330000Y-90100000D01*
X194130000Y-88000000D02*
X194130000Y-90100000D01*
X179430000Y-80900000D02*
X194130000Y-80900000D01*
X179430000Y-90100000D02*
X179430000Y-80900000D01*
X187930000Y-90100000D02*
X179430000Y-90100000D01*
%TO.C,J5*%
X237000000Y-72700000D02*
X237000000Y-63500000D01*
X224380000Y-63500000D02*
X237000000Y-63500000D01*
X224380000Y-72700000D02*
X224380000Y-63500000D01*
X237000000Y-72700000D02*
X224380000Y-72700000D01*
%TO.C,J6*%
X255000000Y-72700000D02*
X242380000Y-72700000D01*
X242380000Y-72700000D02*
X242380000Y-63500000D01*
X242380000Y-63500000D02*
X255000000Y-63500000D01*
X255000000Y-72700000D02*
X255000000Y-63500000D01*
%TO.C,JP1*%
X187348000Y-75670000D02*
X187348000Y-77000000D01*
X186018000Y-75670000D02*
X187348000Y-75670000D01*
X184748000Y-75670000D02*
X184748000Y-78330000D01*
X184748000Y-78330000D02*
X179608000Y-78330000D01*
X184748000Y-75670000D02*
X179608000Y-75670000D01*
X179608000Y-75670000D02*
X179608000Y-78330000D01*
%TO.C,R3*%
X194080000Y-63580000D02*
X194080000Y-64060000D01*
X204220000Y-63580000D02*
X194080000Y-63580000D01*
X204220000Y-64060000D02*
X204220000Y-63580000D01*
X194080000Y-67420000D02*
X194080000Y-66940000D01*
X204220000Y-67420000D02*
X194080000Y-67420000D01*
X204220000Y-66940000D02*
X204220000Y-67420000D01*
%TO.C,R6*%
X222780000Y-112060000D02*
X222780000Y-111580000D01*
X222780000Y-111580000D02*
X232920000Y-111580000D01*
X232920000Y-111580000D02*
X232920000Y-112060000D01*
X222780000Y-114940000D02*
X222780000Y-115420000D01*
X222780000Y-115420000D02*
X232920000Y-115420000D01*
X232920000Y-115420000D02*
X232920000Y-114940000D01*
%TO.C,R7*%
X232920000Y-121420000D02*
X232920000Y-120940000D01*
X222780000Y-121420000D02*
X232920000Y-121420000D01*
X222780000Y-120940000D02*
X222780000Y-121420000D01*
X232920000Y-117580000D02*
X232920000Y-118060000D01*
X222780000Y-117580000D02*
X232920000Y-117580000D01*
X222780000Y-118060000D02*
X222780000Y-117580000D01*
%TO.C,R9*%
X232920000Y-151420000D02*
X232920000Y-150940000D01*
X222780000Y-151420000D02*
X232920000Y-151420000D01*
X222780000Y-150940000D02*
X222780000Y-151420000D01*
X232920000Y-147580000D02*
X232920000Y-148060000D01*
X222780000Y-147580000D02*
X232920000Y-147580000D01*
X222780000Y-148060000D02*
X222780000Y-147580000D01*
%TO.C,R10*%
X238060000Y-154220000D02*
X237580000Y-154220000D01*
X237580000Y-154220000D02*
X237580000Y-144080000D01*
X237580000Y-144080000D02*
X238060000Y-144080000D01*
X240940000Y-154220000D02*
X241420000Y-154220000D01*
X241420000Y-154220000D02*
X241420000Y-144080000D01*
X241420000Y-144080000D02*
X240940000Y-144080000D01*
%TO.C,R11*%
X222780000Y-154060000D02*
X222780000Y-153580000D01*
X222780000Y-153580000D02*
X232920000Y-153580000D01*
X232920000Y-153580000D02*
X232920000Y-154060000D01*
X222780000Y-156940000D02*
X222780000Y-157420000D01*
X222780000Y-157420000D02*
X232920000Y-157420000D01*
X232920000Y-157420000D02*
X232920000Y-156940000D01*
%TO.C,R12*%
X241420000Y-126080000D02*
X240940000Y-126080000D01*
X241420000Y-136220000D02*
X241420000Y-126080000D01*
X240940000Y-136220000D02*
X241420000Y-136220000D01*
X237580000Y-126080000D02*
X238060000Y-126080000D01*
X237580000Y-136220000D02*
X237580000Y-126080000D01*
X238060000Y-136220000D02*
X237580000Y-136220000D01*
%TO.C,R13*%
X182060000Y-112220000D02*
X181580000Y-112220000D01*
X181580000Y-112220000D02*
X181580000Y-102080000D01*
X181580000Y-102080000D02*
X182060000Y-102080000D01*
X184940000Y-112220000D02*
X185420000Y-112220000D01*
X185420000Y-112220000D02*
X185420000Y-102080000D01*
X185420000Y-102080000D02*
X184940000Y-102080000D01*
%TO.C,R14*%
X232920000Y-127420000D02*
X232920000Y-126940000D01*
X222780000Y-127420000D02*
X232920000Y-127420000D01*
X222780000Y-126940000D02*
X222780000Y-127420000D01*
X232920000Y-123580000D02*
X232920000Y-124060000D01*
X222780000Y-123580000D02*
X232920000Y-123580000D01*
X222780000Y-124060000D02*
X222780000Y-123580000D01*
%TO.C,R15*%
X232920000Y-133420000D02*
X232920000Y-132940000D01*
X222780000Y-133420000D02*
X232920000Y-133420000D01*
X222780000Y-132940000D02*
X222780000Y-133420000D01*
X232920000Y-129580000D02*
X232920000Y-130060000D01*
X222780000Y-129580000D02*
X232920000Y-129580000D01*
X222780000Y-130060000D02*
X222780000Y-129580000D01*
%TO.C,R16*%
X185350000Y-123030000D02*
X185350000Y-119430000D01*
X185338478Y-123068478D02*
G75*
G02*
X180900000Y-121230000I-1838478J1838478D01*
G01*
X185338478Y-119391522D02*
G75*
G03*
X180900000Y-121230000I-1838478J-1838478D01*
G01*
%TO.C,R17*%
X232920000Y-139420000D02*
X232920000Y-138940000D01*
X222780000Y-139420000D02*
X232920000Y-139420000D01*
X222780000Y-138940000D02*
X222780000Y-139420000D01*
X232920000Y-135580000D02*
X232920000Y-136060000D01*
X222780000Y-135580000D02*
X232920000Y-135580000D01*
X222780000Y-136060000D02*
X222780000Y-135580000D01*
%TO.C,R18*%
X222780000Y-142060000D02*
X222780000Y-141580000D01*
X222780000Y-141580000D02*
X232920000Y-141580000D01*
X232920000Y-141580000D02*
X232920000Y-142060000D01*
X222780000Y-144940000D02*
X222780000Y-145420000D01*
X222780000Y-145420000D02*
X232920000Y-145420000D01*
X232920000Y-145420000D02*
X232920000Y-144940000D01*
%TO.C,U1*%
X205230000Y-85109000D02*
X206740000Y-85109000D01*
X205230000Y-88810000D02*
X206740000Y-88810000D01*
X206740000Y-92080000D02*
X206740000Y-81840000D01*
X205230000Y-81840000D02*
X209871000Y-81840000D01*
X205230000Y-92080000D02*
X209871000Y-92080000D01*
X209871000Y-92080000D02*
X209871000Y-81840000D01*
X205230000Y-92080000D02*
X205230000Y-81840000D01*
%TO.C,U2*%
X256830000Y-124960000D02*
X256830000Y-123310000D01*
X249090000Y-124960000D02*
X256830000Y-124960000D01*
X249090000Y-119660000D02*
X249090000Y-124960000D01*
X256830000Y-119660000D02*
X249090000Y-119660000D01*
X256830000Y-121310000D02*
X256830000Y-119660000D01*
X256830000Y-123310000D02*
G75*
G02*
X256830000Y-121310000I0J1000000D01*
G01*
%TO.C,SW1*%
X212750000Y-69250000D02*
X218750000Y-69250000D01*
X218750000Y-63250000D02*
X218750000Y-69250000D01*
X212750000Y-63250000D02*
X218750000Y-63250000D01*
X212750000Y-69250000D02*
X212750000Y-63250000D01*
X217715960Y-66250000D02*
G75*
G03*
X217715960Y-66250000I-1965960J0D01*
G01*
%TO.C,SW2*%
X217715960Y-75250000D02*
G75*
G03*
X217715960Y-75250000I-1965960J0D01*
G01*
X212750000Y-78250000D02*
X212750000Y-72250000D01*
X212750000Y-72250000D02*
X218750000Y-72250000D01*
X218750000Y-72250000D02*
X218750000Y-78250000D01*
X212750000Y-78250000D02*
X218750000Y-78250000D01*
%TO.C,J3*%
D10*
X243352380Y-143533333D02*
X244066666Y-143533333D01*
X244209523Y-143580952D01*
X244304761Y-143676190D01*
X244352380Y-143819047D01*
X244352380Y-143914285D01*
X243352380Y-143152380D02*
X243352380Y-142533333D01*
X243733333Y-142866666D01*
X243733333Y-142723809D01*
X243780952Y-142628571D01*
X243828571Y-142580952D01*
X243923809Y-142533333D01*
X244161904Y-142533333D01*
X244257142Y-142580952D01*
X244304761Y-142628571D01*
X244352380Y-142723809D01*
X244352380Y-143009523D01*
X244304761Y-143104761D01*
X244257142Y-143152380D01*
%TO.C,ESP32_Gateway_revG*%
X192952380Y-97428571D02*
X193285714Y-97428571D01*
X193428571Y-97952380D02*
X192952380Y-97952380D01*
X192952380Y-96952380D01*
X193428571Y-96952380D01*
X193809523Y-97904761D02*
X193952380Y-97952380D01*
X194190476Y-97952380D01*
X194285714Y-97904761D01*
X194333333Y-97857142D01*
X194380952Y-97761904D01*
X194380952Y-97666666D01*
X194333333Y-97571428D01*
X194285714Y-97523809D01*
X194190476Y-97476190D01*
X194000000Y-97428571D01*
X193904761Y-97380952D01*
X193857142Y-97333333D01*
X193809523Y-97238095D01*
X193809523Y-97142857D01*
X193857142Y-97047619D01*
X193904761Y-97000000D01*
X194000000Y-96952380D01*
X194238095Y-96952380D01*
X194380952Y-97000000D01*
X194809523Y-97952380D02*
X194809523Y-96952380D01*
X195190476Y-96952380D01*
X195285714Y-97000000D01*
X195333333Y-97047619D01*
X195380952Y-97142857D01*
X195380952Y-97285714D01*
X195333333Y-97380952D01*
X195285714Y-97428571D01*
X195190476Y-97476190D01*
X194809523Y-97476190D01*
X195714285Y-96952380D02*
X196333333Y-96952380D01*
X196000000Y-97333333D01*
X196142857Y-97333333D01*
X196238095Y-97380952D01*
X196285714Y-97428571D01*
X196333333Y-97523809D01*
X196333333Y-97761904D01*
X196285714Y-97857142D01*
X196238095Y-97904761D01*
X196142857Y-97952380D01*
X195857142Y-97952380D01*
X195761904Y-97904761D01*
X195714285Y-97857142D01*
X196714285Y-97047619D02*
X196761904Y-97000000D01*
X196857142Y-96952380D01*
X197095238Y-96952380D01*
X197190476Y-97000000D01*
X197238095Y-97047619D01*
X197285714Y-97142857D01*
X197285714Y-97238095D01*
X197238095Y-97380952D01*
X196666666Y-97952380D01*
X197285714Y-97952380D01*
X197476190Y-98047619D02*
X198238095Y-98047619D01*
X199000000Y-97000000D02*
X198904761Y-96952380D01*
X198761904Y-96952380D01*
X198619047Y-97000000D01*
X198523809Y-97095238D01*
X198476190Y-97190476D01*
X198428571Y-97380952D01*
X198428571Y-97523809D01*
X198476190Y-97714285D01*
X198523809Y-97809523D01*
X198619047Y-97904761D01*
X198761904Y-97952380D01*
X198857142Y-97952380D01*
X199000000Y-97904761D01*
X199047619Y-97857142D01*
X199047619Y-97523809D01*
X198857142Y-97523809D01*
X199904761Y-97952380D02*
X199904761Y-97428571D01*
X199857142Y-97333333D01*
X199761904Y-97285714D01*
X199571428Y-97285714D01*
X199476190Y-97333333D01*
X199904761Y-97904761D02*
X199809523Y-97952380D01*
X199571428Y-97952380D01*
X199476190Y-97904761D01*
X199428571Y-97809523D01*
X199428571Y-97714285D01*
X199476190Y-97619047D01*
X199571428Y-97571428D01*
X199809523Y-97571428D01*
X199904761Y-97523809D01*
X200238095Y-97285714D02*
X200619047Y-97285714D01*
X200380952Y-96952380D02*
X200380952Y-97809523D01*
X200428571Y-97904761D01*
X200523809Y-97952380D01*
X200619047Y-97952380D01*
X201333333Y-97904761D02*
X201238095Y-97952380D01*
X201047619Y-97952380D01*
X200952380Y-97904761D01*
X200904761Y-97809523D01*
X200904761Y-97428571D01*
X200952380Y-97333333D01*
X201047619Y-97285714D01*
X201238095Y-97285714D01*
X201333333Y-97333333D01*
X201380952Y-97428571D01*
X201380952Y-97523809D01*
X200904761Y-97619047D01*
X201714285Y-97285714D02*
X201904761Y-97952380D01*
X202095238Y-97476190D01*
X202285714Y-97952380D01*
X202476190Y-97285714D01*
X203285714Y-97952380D02*
X203285714Y-97428571D01*
X203238095Y-97333333D01*
X203142857Y-97285714D01*
X202952380Y-97285714D01*
X202857142Y-97333333D01*
X203285714Y-97904761D02*
X203190476Y-97952380D01*
X202952380Y-97952380D01*
X202857142Y-97904761D01*
X202809523Y-97809523D01*
X202809523Y-97714285D01*
X202857142Y-97619047D01*
X202952380Y-97571428D01*
X203190476Y-97571428D01*
X203285714Y-97523809D01*
X203666666Y-97285714D02*
X203904761Y-97952380D01*
X204142857Y-97285714D02*
X203904761Y-97952380D01*
X203809523Y-98190476D01*
X203761904Y-98238095D01*
X203666666Y-98285714D01*
X204285714Y-98047619D02*
X205047619Y-98047619D01*
X205285714Y-97952380D02*
X205285714Y-97285714D01*
X205285714Y-97476190D02*
X205333333Y-97380952D01*
X205380952Y-97333333D01*
X205476190Y-97285714D01*
X205571428Y-97285714D01*
X206285714Y-97904761D02*
X206190476Y-97952380D01*
X206000000Y-97952380D01*
X205904761Y-97904761D01*
X205857142Y-97809523D01*
X205857142Y-97428571D01*
X205904761Y-97333333D01*
X206000000Y-97285714D01*
X206190476Y-97285714D01*
X206285714Y-97333333D01*
X206333333Y-97428571D01*
X206333333Y-97523809D01*
X205857142Y-97619047D01*
X206666666Y-97285714D02*
X206904761Y-97952380D01*
X207142857Y-97285714D01*
X208047619Y-97000000D02*
X207952380Y-96952380D01*
X207809523Y-96952380D01*
X207666666Y-97000000D01*
X207571428Y-97095238D01*
X207523809Y-97190476D01*
X207476190Y-97380952D01*
X207476190Y-97523809D01*
X207523809Y-97714285D01*
X207571428Y-97809523D01*
X207666666Y-97904761D01*
X207809523Y-97952380D01*
X207904761Y-97952380D01*
X208047619Y-97904761D01*
X208095238Y-97857142D01*
X208095238Y-97523809D01*
X207904761Y-97523809D01*
%TO.C,D4*%
X197761904Y-74622380D02*
X197761904Y-73622380D01*
X198000000Y-73622380D01*
X198142857Y-73670000D01*
X198238095Y-73765238D01*
X198285714Y-73860476D01*
X198333333Y-74050952D01*
X198333333Y-74193809D01*
X198285714Y-74384285D01*
X198238095Y-74479523D01*
X198142857Y-74574761D01*
X198000000Y-74622380D01*
X197761904Y-74622380D01*
X199190476Y-73955714D02*
X199190476Y-74622380D01*
X198952380Y-73574761D02*
X198714285Y-74289047D01*
X199333333Y-74289047D01*
%TO.C,R8*%
X201633333Y-74702380D02*
X201300000Y-74226190D01*
X201061904Y-74702380D02*
X201061904Y-73702380D01*
X201442857Y-73702380D01*
X201538095Y-73750000D01*
X201585714Y-73797619D01*
X201633333Y-73892857D01*
X201633333Y-74035714D01*
X201585714Y-74130952D01*
X201538095Y-74178571D01*
X201442857Y-74226190D01*
X201061904Y-74226190D01*
X202204761Y-74130952D02*
X202109523Y-74083333D01*
X202061904Y-74035714D01*
X202014285Y-73940476D01*
X202014285Y-73892857D01*
X202061904Y-73797619D01*
X202109523Y-73750000D01*
X202204761Y-73702380D01*
X202395238Y-73702380D01*
X202490476Y-73750000D01*
X202538095Y-73797619D01*
X202585714Y-73892857D01*
X202585714Y-73940476D01*
X202538095Y-74035714D01*
X202490476Y-74083333D01*
X202395238Y-74130952D01*
X202204761Y-74130952D01*
X202109523Y-74178571D01*
X202061904Y-74226190D01*
X202014285Y-74321428D01*
X202014285Y-74511904D01*
X202061904Y-74607142D01*
X202109523Y-74654761D01*
X202204761Y-74702380D01*
X202395238Y-74702380D01*
X202490476Y-74654761D01*
X202538095Y-74607142D01*
X202585714Y-74511904D01*
X202585714Y-74321428D01*
X202538095Y-74226190D01*
X202490476Y-74178571D01*
X202395238Y-74130952D01*
%TO.C,Q2*%
X252047619Y-78865238D02*
X252000000Y-78960476D01*
X251904761Y-79055714D01*
X251761904Y-79198571D01*
X251714285Y-79293809D01*
X251714285Y-79389047D01*
X251952380Y-79341428D02*
X251904761Y-79436666D01*
X251809523Y-79531904D01*
X251619047Y-79579523D01*
X251285714Y-79579523D01*
X251095238Y-79531904D01*
X251000000Y-79436666D01*
X250952380Y-79341428D01*
X250952380Y-79150952D01*
X251000000Y-79055714D01*
X251095238Y-78960476D01*
X251285714Y-78912857D01*
X251619047Y-78912857D01*
X251809523Y-78960476D01*
X251904761Y-79055714D01*
X251952380Y-79150952D01*
X251952380Y-79341428D01*
X251047619Y-78531904D02*
X251000000Y-78484285D01*
X250952380Y-78389047D01*
X250952380Y-78150952D01*
X251000000Y-78055714D01*
X251047619Y-78008095D01*
X251142857Y-77960476D01*
X251238095Y-77960476D01*
X251380952Y-78008095D01*
X251952380Y-78579523D01*
X251952380Y-77960476D01*
%TO.C,Q1*%
X234047619Y-78865238D02*
X234000000Y-78960476D01*
X233904761Y-79055714D01*
X233761904Y-79198571D01*
X233714285Y-79293809D01*
X233714285Y-79389047D01*
X233952380Y-79341428D02*
X233904761Y-79436666D01*
X233809523Y-79531904D01*
X233619047Y-79579523D01*
X233285714Y-79579523D01*
X233095238Y-79531904D01*
X233000000Y-79436666D01*
X232952380Y-79341428D01*
X232952380Y-79150952D01*
X233000000Y-79055714D01*
X233095238Y-78960476D01*
X233285714Y-78912857D01*
X233619047Y-78912857D01*
X233809523Y-78960476D01*
X233904761Y-79055714D01*
X233952380Y-79150952D01*
X233952380Y-79341428D01*
X233952380Y-77960476D02*
X233952380Y-78531904D01*
X233952380Y-78246190D02*
X232952380Y-78246190D01*
X233095238Y-78341428D01*
X233190476Y-78436666D01*
X233238095Y-78531904D01*
%TO.C,U3*%
X257282380Y-112071904D02*
X258091904Y-112071904D01*
X258187142Y-112024285D01*
X258234761Y-111976666D01*
X258282380Y-111881428D01*
X258282380Y-111690952D01*
X258234761Y-111595714D01*
X258187142Y-111548095D01*
X258091904Y-111500476D01*
X257282380Y-111500476D01*
X257282380Y-111119523D02*
X257282380Y-110500476D01*
X257663333Y-110833809D01*
X257663333Y-110690952D01*
X257710952Y-110595714D01*
X257758571Y-110548095D01*
X257853809Y-110500476D01*
X258091904Y-110500476D01*
X258187142Y-110548095D01*
X258234761Y-110595714D01*
X258282380Y-110690952D01*
X258282380Y-110976666D01*
X258234761Y-111071904D01*
X258187142Y-111119523D01*
%TO.C,C2*%
X218757142Y-87266666D02*
X218804761Y-87314285D01*
X218852380Y-87457142D01*
X218852380Y-87552380D01*
X218804761Y-87695238D01*
X218709523Y-87790476D01*
X218614285Y-87838095D01*
X218423809Y-87885714D01*
X218280952Y-87885714D01*
X218090476Y-87838095D01*
X217995238Y-87790476D01*
X217900000Y-87695238D01*
X217852380Y-87552380D01*
X217852380Y-87457142D01*
X217900000Y-87314285D01*
X217947619Y-87266666D01*
X217947619Y-86885714D02*
X217900000Y-86838095D01*
X217852380Y-86742857D01*
X217852380Y-86504761D01*
X217900000Y-86409523D01*
X217947619Y-86361904D01*
X218042857Y-86314285D01*
X218138095Y-86314285D01*
X218280952Y-86361904D01*
X218852380Y-86933333D01*
X218852380Y-86314285D01*
%TO.C,D2*%
X239072380Y-88048095D02*
X238072380Y-88048095D01*
X238072380Y-87810000D01*
X238120000Y-87667142D01*
X238215238Y-87571904D01*
X238310476Y-87524285D01*
X238500952Y-87476666D01*
X238643809Y-87476666D01*
X238834285Y-87524285D01*
X238929523Y-87571904D01*
X239024761Y-87667142D01*
X239072380Y-87810000D01*
X239072380Y-88048095D01*
X238167619Y-87095714D02*
X238120000Y-87048095D01*
X238072380Y-86952857D01*
X238072380Y-86714761D01*
X238120000Y-86619523D01*
X238167619Y-86571904D01*
X238262857Y-86524285D01*
X238358095Y-86524285D01*
X238500952Y-86571904D01*
X239072380Y-87143333D01*
X239072380Y-86524285D01*
X238752380Y-83761904D02*
X237752380Y-83761904D01*
X238752380Y-83190476D02*
X238180952Y-83619047D01*
X237752380Y-83190476D02*
X238323809Y-83761904D01*
%TO.C,K2*%
X245261904Y-75752380D02*
X245261904Y-74752380D01*
X245833333Y-75752380D02*
X245404761Y-75180952D01*
X245833333Y-74752380D02*
X245261904Y-75323809D01*
X246214285Y-74847619D02*
X246261904Y-74800000D01*
X246357142Y-74752380D01*
X246595238Y-74752380D01*
X246690476Y-74800000D01*
X246738095Y-74847619D01*
X246785714Y-74942857D01*
X246785714Y-75038095D01*
X246738095Y-75180952D01*
X246166666Y-75752380D01*
X246785714Y-75752380D01*
%TO.C,R1*%
X227683333Y-99032380D02*
X227350000Y-98556190D01*
X227111904Y-99032380D02*
X227111904Y-98032380D01*
X227492857Y-98032380D01*
X227588095Y-98080000D01*
X227635714Y-98127619D01*
X227683333Y-98222857D01*
X227683333Y-98365714D01*
X227635714Y-98460952D01*
X227588095Y-98508571D01*
X227492857Y-98556190D01*
X227111904Y-98556190D01*
X228635714Y-99032380D02*
X228064285Y-99032380D01*
X228350000Y-99032380D02*
X228350000Y-98032380D01*
X228254761Y-98175238D01*
X228159523Y-98270476D01*
X228064285Y-98318095D01*
%TO.C,R2*%
X227683333Y-105032380D02*
X227350000Y-104556190D01*
X227111904Y-105032380D02*
X227111904Y-104032380D01*
X227492857Y-104032380D01*
X227588095Y-104080000D01*
X227635714Y-104127619D01*
X227683333Y-104222857D01*
X227683333Y-104365714D01*
X227635714Y-104460952D01*
X227588095Y-104508571D01*
X227492857Y-104556190D01*
X227111904Y-104556190D01*
X228064285Y-104127619D02*
X228111904Y-104080000D01*
X228207142Y-104032380D01*
X228445238Y-104032380D01*
X228540476Y-104080000D01*
X228588095Y-104127619D01*
X228635714Y-104222857D01*
X228635714Y-104318095D01*
X228588095Y-104460952D01*
X228016666Y-105032380D01*
X228635714Y-105032380D01*
%TO.C,R4*%
X237032380Y-101816666D02*
X236556190Y-102150000D01*
X237032380Y-102388095D02*
X236032380Y-102388095D01*
X236032380Y-102007142D01*
X236080000Y-101911904D01*
X236127619Y-101864285D01*
X236222857Y-101816666D01*
X236365714Y-101816666D01*
X236460952Y-101864285D01*
X236508571Y-101911904D01*
X236556190Y-102007142D01*
X236556190Y-102388095D01*
X236365714Y-100959523D02*
X237032380Y-100959523D01*
X235984761Y-101197619D02*
X236699047Y-101435714D01*
X236699047Y-100816666D01*
%TO.C,K1*%
X227261904Y-75752380D02*
X227261904Y-74752380D01*
X227833333Y-75752380D02*
X227404761Y-75180952D01*
X227833333Y-74752380D02*
X227261904Y-75323809D01*
X228785714Y-75752380D02*
X228214285Y-75752380D01*
X228500000Y-75752380D02*
X228500000Y-74752380D01*
X228404761Y-74895238D01*
X228309523Y-74990476D01*
X228214285Y-75038095D01*
%TO.C,R5*%
X243032380Y-101816666D02*
X242556190Y-102150000D01*
X243032380Y-102388095D02*
X242032380Y-102388095D01*
X242032380Y-102007142D01*
X242080000Y-101911904D01*
X242127619Y-101864285D01*
X242222857Y-101816666D01*
X242365714Y-101816666D01*
X242460952Y-101864285D01*
X242508571Y-101911904D01*
X242556190Y-102007142D01*
X242556190Y-102388095D01*
X242032380Y-100911904D02*
X242032380Y-101388095D01*
X242508571Y-101435714D01*
X242460952Y-101388095D01*
X242413333Y-101292857D01*
X242413333Y-101054761D01*
X242460952Y-100959523D01*
X242508571Y-100911904D01*
X242603809Y-100864285D01*
X242841904Y-100864285D01*
X242937142Y-100911904D01*
X242984761Y-100959523D01*
X243032380Y-101054761D01*
X243032380Y-101292857D01*
X242984761Y-101388095D01*
X242937142Y-101435714D01*
%TO.C,GND*%
X252388095Y-94800000D02*
X252292857Y-94752380D01*
X252150000Y-94752380D01*
X252007142Y-94800000D01*
X251911904Y-94895238D01*
X251864285Y-94990476D01*
X251816666Y-95180952D01*
X251816666Y-95323809D01*
X251864285Y-95514285D01*
X251911904Y-95609523D01*
X252007142Y-95704761D01*
X252150000Y-95752380D01*
X252245238Y-95752380D01*
X252388095Y-95704761D01*
X252435714Y-95657142D01*
X252435714Y-95323809D01*
X252245238Y-95323809D01*
X252864285Y-95752380D02*
X252864285Y-94752380D01*
X253435714Y-95752380D01*
X253435714Y-94752380D01*
X253911904Y-95752380D02*
X253911904Y-94752380D01*
X254150000Y-94752380D01*
X254292857Y-94800000D01*
X254388095Y-94895238D01*
X254435714Y-94990476D01*
X254483333Y-95180952D01*
X254483333Y-95323809D01*
X254435714Y-95514285D01*
X254388095Y-95609523D01*
X254292857Y-95704761D01*
X254150000Y-95752380D01*
X253911904Y-95752380D01*
%TO.C,J4*%
X187584666Y-73952380D02*
X187584666Y-74666666D01*
X187537047Y-74809523D01*
X187441809Y-74904761D01*
X187298952Y-74952380D01*
X187203714Y-74952380D01*
X188489428Y-74285714D02*
X188489428Y-74952380D01*
X188251333Y-73904761D02*
X188013238Y-74619047D01*
X188632285Y-74619047D01*
%TO.C,J2*%
X218782380Y-155833333D02*
X219496666Y-155833333D01*
X219639523Y-155880952D01*
X219734761Y-155976190D01*
X219782380Y-156119047D01*
X219782380Y-156214285D01*
X218877619Y-155404761D02*
X218830000Y-155357142D01*
X218782380Y-155261904D01*
X218782380Y-155023809D01*
X218830000Y-154928571D01*
X218877619Y-154880952D01*
X218972857Y-154833333D01*
X219068095Y-154833333D01*
X219210952Y-154880952D01*
X219782380Y-155452380D01*
X219782380Y-154833333D01*
%TO.C,ESP32_devkitV1*%
X195380952Y-106928571D02*
X195714285Y-106928571D01*
X195857142Y-107452380D02*
X195380952Y-107452380D01*
X195380952Y-106452380D01*
X195857142Y-106452380D01*
X196238095Y-107404761D02*
X196380952Y-107452380D01*
X196619047Y-107452380D01*
X196714285Y-107404761D01*
X196761904Y-107357142D01*
X196809523Y-107261904D01*
X196809523Y-107166666D01*
X196761904Y-107071428D01*
X196714285Y-107023809D01*
X196619047Y-106976190D01*
X196428571Y-106928571D01*
X196333333Y-106880952D01*
X196285714Y-106833333D01*
X196238095Y-106738095D01*
X196238095Y-106642857D01*
X196285714Y-106547619D01*
X196333333Y-106500000D01*
X196428571Y-106452380D01*
X196666666Y-106452380D01*
X196809523Y-106500000D01*
X197238095Y-107452380D02*
X197238095Y-106452380D01*
X197619047Y-106452380D01*
X197714285Y-106500000D01*
X197761904Y-106547619D01*
X197809523Y-106642857D01*
X197809523Y-106785714D01*
X197761904Y-106880952D01*
X197714285Y-106928571D01*
X197619047Y-106976190D01*
X197238095Y-106976190D01*
X198142857Y-106452380D02*
X198761904Y-106452380D01*
X198428571Y-106833333D01*
X198571428Y-106833333D01*
X198666666Y-106880952D01*
X198714285Y-106928571D01*
X198761904Y-107023809D01*
X198761904Y-107261904D01*
X198714285Y-107357142D01*
X198666666Y-107404761D01*
X198571428Y-107452380D01*
X198285714Y-107452380D01*
X198190476Y-107404761D01*
X198142857Y-107357142D01*
X199142857Y-106547619D02*
X199190476Y-106500000D01*
X199285714Y-106452380D01*
X199523809Y-106452380D01*
X199619047Y-106500000D01*
X199666666Y-106547619D01*
X199714285Y-106642857D01*
X199714285Y-106738095D01*
X199666666Y-106880952D01*
X199095238Y-107452380D01*
X199714285Y-107452380D01*
X199904761Y-107547619D02*
X200666666Y-107547619D01*
X201333333Y-107452380D02*
X201333333Y-106452380D01*
X201333333Y-107404761D02*
X201238095Y-107452380D01*
X201047619Y-107452380D01*
X200952380Y-107404761D01*
X200904761Y-107357142D01*
X200857142Y-107261904D01*
X200857142Y-106976190D01*
X200904761Y-106880952D01*
X200952380Y-106833333D01*
X201047619Y-106785714D01*
X201238095Y-106785714D01*
X201333333Y-106833333D01*
X202190476Y-107404761D02*
X202095238Y-107452380D01*
X201904761Y-107452380D01*
X201809523Y-107404761D01*
X201761904Y-107309523D01*
X201761904Y-106928571D01*
X201809523Y-106833333D01*
X201904761Y-106785714D01*
X202095238Y-106785714D01*
X202190476Y-106833333D01*
X202238095Y-106928571D01*
X202238095Y-107023809D01*
X201761904Y-107119047D01*
X202571428Y-106785714D02*
X202809523Y-107452380D01*
X203047619Y-106785714D01*
X203428571Y-107452380D02*
X203428571Y-106452380D01*
X203523809Y-107071428D02*
X203809523Y-107452380D01*
X203809523Y-106785714D02*
X203428571Y-107166666D01*
X204238095Y-107452380D02*
X204238095Y-106785714D01*
X204238095Y-106452380D02*
X204190476Y-106500000D01*
X204238095Y-106547619D01*
X204285714Y-106500000D01*
X204238095Y-106452380D01*
X204238095Y-106547619D01*
X204571428Y-106785714D02*
X204952380Y-106785714D01*
X204714285Y-106452380D02*
X204714285Y-107309523D01*
X204761904Y-107404761D01*
X204857142Y-107452380D01*
X204952380Y-107452380D01*
X205142857Y-106452380D02*
X205476190Y-107452380D01*
X205809523Y-106452380D01*
X206666666Y-107452380D02*
X206095238Y-107452380D01*
X206380952Y-107452380D02*
X206380952Y-106452380D01*
X206285714Y-106595238D01*
X206190476Y-106690476D01*
X206095238Y-106738095D01*
X200066095Y-147956380D02*
X200066095Y-148765904D01*
X200113714Y-148861142D01*
X200161333Y-148908761D01*
X200256571Y-148956380D01*
X200447047Y-148956380D01*
X200542285Y-148908761D01*
X200589904Y-148861142D01*
X200637523Y-148765904D01*
X200637523Y-147956380D01*
X201066095Y-148908761D02*
X201208952Y-148956380D01*
X201447047Y-148956380D01*
X201542285Y-148908761D01*
X201589904Y-148861142D01*
X201637523Y-148765904D01*
X201637523Y-148670666D01*
X201589904Y-148575428D01*
X201542285Y-148527809D01*
X201447047Y-148480190D01*
X201256571Y-148432571D01*
X201161333Y-148384952D01*
X201113714Y-148337333D01*
X201066095Y-148242095D01*
X201066095Y-148146857D01*
X201113714Y-148051619D01*
X201161333Y-148004000D01*
X201256571Y-147956380D01*
X201494666Y-147956380D01*
X201637523Y-148004000D01*
X202399428Y-148432571D02*
X202542285Y-148480190D01*
X202589904Y-148527809D01*
X202637523Y-148623047D01*
X202637523Y-148765904D01*
X202589904Y-148861142D01*
X202542285Y-148908761D01*
X202447047Y-148956380D01*
X202066095Y-148956380D01*
X202066095Y-147956380D01*
X202399428Y-147956380D01*
X202494666Y-148004000D01*
X202542285Y-148051619D01*
X202589904Y-148146857D01*
X202589904Y-148242095D01*
X202542285Y-148337333D01*
X202494666Y-148384952D01*
X202399428Y-148432571D01*
X202066095Y-148432571D01*
%TO.C,C1*%
X202757142Y-87266666D02*
X202804761Y-87314285D01*
X202852380Y-87457142D01*
X202852380Y-87552380D01*
X202804761Y-87695238D01*
X202709523Y-87790476D01*
X202614285Y-87838095D01*
X202423809Y-87885714D01*
X202280952Y-87885714D01*
X202090476Y-87838095D01*
X201995238Y-87790476D01*
X201900000Y-87695238D01*
X201852380Y-87552380D01*
X201852380Y-87457142D01*
X201900000Y-87314285D01*
X201947619Y-87266666D01*
X202852380Y-86314285D02*
X202852380Y-86885714D01*
X202852380Y-86600000D02*
X201852380Y-86600000D01*
X201995238Y-86695238D01*
X202090476Y-86790476D01*
X202138095Y-86885714D01*
%TO.C,C3*%
X180857142Y-130266666D02*
X180904761Y-130314285D01*
X180952380Y-130457142D01*
X180952380Y-130552380D01*
X180904761Y-130695238D01*
X180809523Y-130790476D01*
X180714285Y-130838095D01*
X180523809Y-130885714D01*
X180380952Y-130885714D01*
X180190476Y-130838095D01*
X180095238Y-130790476D01*
X180000000Y-130695238D01*
X179952380Y-130552380D01*
X179952380Y-130457142D01*
X180000000Y-130314285D01*
X180047619Y-130266666D01*
X179952380Y-129933333D02*
X179952380Y-129314285D01*
X180333333Y-129647619D01*
X180333333Y-129504761D01*
X180380952Y-129409523D01*
X180428571Y-129361904D01*
X180523809Y-129314285D01*
X180761904Y-129314285D01*
X180857142Y-129361904D01*
X180904761Y-129409523D01*
X180952380Y-129504761D01*
X180952380Y-129790476D01*
X180904761Y-129885714D01*
X180857142Y-129933333D01*
%TO.C,D1*%
X204761904Y-74622380D02*
X204761904Y-73622380D01*
X205000000Y-73622380D01*
X205142857Y-73670000D01*
X205238095Y-73765238D01*
X205285714Y-73860476D01*
X205333333Y-74050952D01*
X205333333Y-74193809D01*
X205285714Y-74384285D01*
X205238095Y-74479523D01*
X205142857Y-74574761D01*
X205000000Y-74622380D01*
X204761904Y-74622380D01*
X206285714Y-74622380D02*
X205714285Y-74622380D01*
X206000000Y-74622380D02*
X206000000Y-73622380D01*
X205904761Y-73765238D01*
X205809523Y-73860476D01*
X205714285Y-73908095D01*
%TO.C,D3*%
X257072380Y-88048095D02*
X256072380Y-88048095D01*
X256072380Y-87810000D01*
X256120000Y-87667142D01*
X256215238Y-87571904D01*
X256310476Y-87524285D01*
X256500952Y-87476666D01*
X256643809Y-87476666D01*
X256834285Y-87524285D01*
X256929523Y-87571904D01*
X257024761Y-87667142D01*
X257072380Y-87810000D01*
X257072380Y-88048095D01*
X256072380Y-87143333D02*
X256072380Y-86524285D01*
X256453333Y-86857619D01*
X256453333Y-86714761D01*
X256500952Y-86619523D01*
X256548571Y-86571904D01*
X256643809Y-86524285D01*
X256881904Y-86524285D01*
X256977142Y-86571904D01*
X257024761Y-86619523D01*
X257072380Y-86714761D01*
X257072380Y-87000476D01*
X257024761Y-87095714D01*
X256977142Y-87143333D01*
X256752380Y-83761904D02*
X255752380Y-83761904D01*
X256752380Y-83190476D02*
X256180952Y-83619047D01*
X255752380Y-83190476D02*
X256323809Y-83761904D01*
%TO.C,D5*%
X244282380Y-120238095D02*
X243282380Y-120238095D01*
X243282380Y-120000000D01*
X243330000Y-119857142D01*
X243425238Y-119761904D01*
X243520476Y-119714285D01*
X243710952Y-119666666D01*
X243853809Y-119666666D01*
X244044285Y-119714285D01*
X244139523Y-119761904D01*
X244234761Y-119857142D01*
X244282380Y-120000000D01*
X244282380Y-120238095D01*
X243282380Y-118761904D02*
X243282380Y-119238095D01*
X243758571Y-119285714D01*
X243710952Y-119238095D01*
X243663333Y-119142857D01*
X243663333Y-118904761D01*
X243710952Y-118809523D01*
X243758571Y-118761904D01*
X243853809Y-118714285D01*
X244091904Y-118714285D01*
X244187142Y-118761904D01*
X244234761Y-118809523D01*
X244282380Y-118904761D01*
X244282380Y-119142857D01*
X244234761Y-119238095D01*
X244187142Y-119285714D01*
%TO.C,D6*%
X244282380Y-114238095D02*
X243282380Y-114238095D01*
X243282380Y-114000000D01*
X243330000Y-113857142D01*
X243425238Y-113761904D01*
X243520476Y-113714285D01*
X243710952Y-113666666D01*
X243853809Y-113666666D01*
X244044285Y-113714285D01*
X244139523Y-113761904D01*
X244234761Y-113857142D01*
X244282380Y-114000000D01*
X244282380Y-114238095D01*
X243282380Y-112809523D02*
X243282380Y-113000000D01*
X243330000Y-113095238D01*
X243377619Y-113142857D01*
X243520476Y-113238095D01*
X243710952Y-113285714D01*
X244091904Y-113285714D01*
X244187142Y-113238095D01*
X244234761Y-113190476D01*
X244282380Y-113095238D01*
X244282380Y-112904761D01*
X244234761Y-112809523D01*
X244187142Y-112761904D01*
X244091904Y-112714285D01*
X243853809Y-112714285D01*
X243758571Y-112761904D01*
X243710952Y-112809523D01*
X243663333Y-112904761D01*
X243663333Y-113095238D01*
X243710952Y-113190476D01*
X243758571Y-113238095D01*
X243853809Y-113285714D01*
%TO.C,J1*%
X195082380Y-85833333D02*
X195796666Y-85833333D01*
X195939523Y-85880952D01*
X196034761Y-85976190D01*
X196082380Y-86119047D01*
X196082380Y-86214285D01*
X196082380Y-84833333D02*
X196082380Y-85404761D01*
X196082380Y-85119047D02*
X195082380Y-85119047D01*
X195225238Y-85214285D01*
X195320476Y-85309523D01*
X195368095Y-85404761D01*
%TO.C,J5*%
X230356666Y-73952380D02*
X230356666Y-74666666D01*
X230309047Y-74809523D01*
X230213809Y-74904761D01*
X230070952Y-74952380D01*
X229975714Y-74952380D01*
X231309047Y-73952380D02*
X230832857Y-73952380D01*
X230785238Y-74428571D01*
X230832857Y-74380952D01*
X230928095Y-74333333D01*
X231166190Y-74333333D01*
X231261428Y-74380952D01*
X231309047Y-74428571D01*
X231356666Y-74523809D01*
X231356666Y-74761904D01*
X231309047Y-74857142D01*
X231261428Y-74904761D01*
X231166190Y-74952380D01*
X230928095Y-74952380D01*
X230832857Y-74904761D01*
X230785238Y-74857142D01*
%TO.C,J6*%
X248356666Y-73952380D02*
X248356666Y-74666666D01*
X248309047Y-74809523D01*
X248213809Y-74904761D01*
X248070952Y-74952380D01*
X247975714Y-74952380D01*
X249261428Y-73952380D02*
X249070952Y-73952380D01*
X248975714Y-74000000D01*
X248928095Y-74047619D01*
X248832857Y-74190476D01*
X248785238Y-74380952D01*
X248785238Y-74761904D01*
X248832857Y-74857142D01*
X248880476Y-74904761D01*
X248975714Y-74952380D01*
X249166190Y-74952380D01*
X249261428Y-74904761D01*
X249309047Y-74857142D01*
X249356666Y-74761904D01*
X249356666Y-74523809D01*
X249309047Y-74428571D01*
X249261428Y-74380952D01*
X249166190Y-74333333D01*
X248975714Y-74333333D01*
X248880476Y-74380952D01*
X248832857Y-74428571D01*
X248785238Y-74523809D01*
%TO.C,JP1*%
X187800380Y-77833333D02*
X188514666Y-77833333D01*
X188657523Y-77880952D01*
X188752761Y-77976190D01*
X188800380Y-78119047D01*
X188800380Y-78214285D01*
X188800380Y-77357142D02*
X187800380Y-77357142D01*
X187800380Y-76976190D01*
X187848000Y-76880952D01*
X187895619Y-76833333D01*
X187990857Y-76785714D01*
X188133714Y-76785714D01*
X188228952Y-76833333D01*
X188276571Y-76880952D01*
X188324190Y-76976190D01*
X188324190Y-77357142D01*
X188800380Y-75833333D02*
X188800380Y-76404761D01*
X188800380Y-76119047D02*
X187800380Y-76119047D01*
X187943238Y-76214285D01*
X188038476Y-76309523D01*
X188086095Y-76404761D01*
%TO.C,R3*%
X198983333Y-68872380D02*
X198650000Y-68396190D01*
X198411904Y-68872380D02*
X198411904Y-67872380D01*
X198792857Y-67872380D01*
X198888095Y-67920000D01*
X198935714Y-67967619D01*
X198983333Y-68062857D01*
X198983333Y-68205714D01*
X198935714Y-68300952D01*
X198888095Y-68348571D01*
X198792857Y-68396190D01*
X198411904Y-68396190D01*
X199316666Y-67872380D02*
X199935714Y-67872380D01*
X199602380Y-68253333D01*
X199745238Y-68253333D01*
X199840476Y-68300952D01*
X199888095Y-68348571D01*
X199935714Y-68443809D01*
X199935714Y-68681904D01*
X199888095Y-68777142D01*
X199840476Y-68824761D01*
X199745238Y-68872380D01*
X199459523Y-68872380D01*
X199364285Y-68824761D01*
X199316666Y-68777142D01*
%TO.C,R6*%
X227683333Y-111032380D02*
X227350000Y-110556190D01*
X227111904Y-111032380D02*
X227111904Y-110032380D01*
X227492857Y-110032380D01*
X227588095Y-110080000D01*
X227635714Y-110127619D01*
X227683333Y-110222857D01*
X227683333Y-110365714D01*
X227635714Y-110460952D01*
X227588095Y-110508571D01*
X227492857Y-110556190D01*
X227111904Y-110556190D01*
X228540476Y-110032380D02*
X228350000Y-110032380D01*
X228254761Y-110080000D01*
X228207142Y-110127619D01*
X228111904Y-110270476D01*
X228064285Y-110460952D01*
X228064285Y-110841904D01*
X228111904Y-110937142D01*
X228159523Y-110984761D01*
X228254761Y-111032380D01*
X228445238Y-111032380D01*
X228540476Y-110984761D01*
X228588095Y-110937142D01*
X228635714Y-110841904D01*
X228635714Y-110603809D01*
X228588095Y-110508571D01*
X228540476Y-110460952D01*
X228445238Y-110413333D01*
X228254761Y-110413333D01*
X228159523Y-110460952D01*
X228111904Y-110508571D01*
X228064285Y-110603809D01*
%TO.C,R7*%
X227683333Y-117032380D02*
X227350000Y-116556190D01*
X227111904Y-117032380D02*
X227111904Y-116032380D01*
X227492857Y-116032380D01*
X227588095Y-116080000D01*
X227635714Y-116127619D01*
X227683333Y-116222857D01*
X227683333Y-116365714D01*
X227635714Y-116460952D01*
X227588095Y-116508571D01*
X227492857Y-116556190D01*
X227111904Y-116556190D01*
X228016666Y-116032380D02*
X228683333Y-116032380D01*
X228254761Y-117032380D01*
%TO.C,R9*%
X227683333Y-147032380D02*
X227350000Y-146556190D01*
X227111904Y-147032380D02*
X227111904Y-146032380D01*
X227492857Y-146032380D01*
X227588095Y-146080000D01*
X227635714Y-146127619D01*
X227683333Y-146222857D01*
X227683333Y-146365714D01*
X227635714Y-146460952D01*
X227588095Y-146508571D01*
X227492857Y-146556190D01*
X227111904Y-146556190D01*
X228159523Y-147032380D02*
X228350000Y-147032380D01*
X228445238Y-146984761D01*
X228492857Y-146937142D01*
X228588095Y-146794285D01*
X228635714Y-146603809D01*
X228635714Y-146222857D01*
X228588095Y-146127619D01*
X228540476Y-146080000D01*
X228445238Y-146032380D01*
X228254761Y-146032380D01*
X228159523Y-146080000D01*
X228111904Y-146127619D01*
X228064285Y-146222857D01*
X228064285Y-146460952D01*
X228111904Y-146556190D01*
X228159523Y-146603809D01*
X228254761Y-146651428D01*
X228445238Y-146651428D01*
X228540476Y-146603809D01*
X228588095Y-146556190D01*
X228635714Y-146460952D01*
%TO.C,R10*%
X237032380Y-149792857D02*
X236556190Y-150126190D01*
X237032380Y-150364285D02*
X236032380Y-150364285D01*
X236032380Y-149983333D01*
X236080000Y-149888095D01*
X236127619Y-149840476D01*
X236222857Y-149792857D01*
X236365714Y-149792857D01*
X236460952Y-149840476D01*
X236508571Y-149888095D01*
X236556190Y-149983333D01*
X236556190Y-150364285D01*
X237032380Y-148840476D02*
X237032380Y-149411904D01*
X237032380Y-149126190D02*
X236032380Y-149126190D01*
X236175238Y-149221428D01*
X236270476Y-149316666D01*
X236318095Y-149411904D01*
X236032380Y-148221428D02*
X236032380Y-148126190D01*
X236080000Y-148030952D01*
X236127619Y-147983333D01*
X236222857Y-147935714D01*
X236413333Y-147888095D01*
X236651428Y-147888095D01*
X236841904Y-147935714D01*
X236937142Y-147983333D01*
X236984761Y-148030952D01*
X237032380Y-148126190D01*
X237032380Y-148221428D01*
X236984761Y-148316666D01*
X236937142Y-148364285D01*
X236841904Y-148411904D01*
X236651428Y-148459523D01*
X236413333Y-148459523D01*
X236222857Y-148411904D01*
X236127619Y-148364285D01*
X236080000Y-148316666D01*
X236032380Y-148221428D01*
%TO.C,R11*%
X227207142Y-153032380D02*
X226873809Y-152556190D01*
X226635714Y-153032380D02*
X226635714Y-152032380D01*
X227016666Y-152032380D01*
X227111904Y-152080000D01*
X227159523Y-152127619D01*
X227207142Y-152222857D01*
X227207142Y-152365714D01*
X227159523Y-152460952D01*
X227111904Y-152508571D01*
X227016666Y-152556190D01*
X226635714Y-152556190D01*
X228159523Y-153032380D02*
X227588095Y-153032380D01*
X227873809Y-153032380D02*
X227873809Y-152032380D01*
X227778571Y-152175238D01*
X227683333Y-152270476D01*
X227588095Y-152318095D01*
X229111904Y-153032380D02*
X228540476Y-153032380D01*
X228826190Y-153032380D02*
X228826190Y-152032380D01*
X228730952Y-152175238D01*
X228635714Y-152270476D01*
X228540476Y-152318095D01*
%TO.C,R12*%
X237032380Y-131792857D02*
X236556190Y-132126190D01*
X237032380Y-132364285D02*
X236032380Y-132364285D01*
X236032380Y-131983333D01*
X236080000Y-131888095D01*
X236127619Y-131840476D01*
X236222857Y-131792857D01*
X236365714Y-131792857D01*
X236460952Y-131840476D01*
X236508571Y-131888095D01*
X236556190Y-131983333D01*
X236556190Y-132364285D01*
X237032380Y-130840476D02*
X237032380Y-131411904D01*
X237032380Y-131126190D02*
X236032380Y-131126190D01*
X236175238Y-131221428D01*
X236270476Y-131316666D01*
X236318095Y-131411904D01*
X236127619Y-130459523D02*
X236080000Y-130411904D01*
X236032380Y-130316666D01*
X236032380Y-130078571D01*
X236080000Y-129983333D01*
X236127619Y-129935714D01*
X236222857Y-129888095D01*
X236318095Y-129888095D01*
X236460952Y-129935714D01*
X237032380Y-130507142D01*
X237032380Y-129888095D01*
%TO.C,R13*%
X181032380Y-107792857D02*
X180556190Y-108126190D01*
X181032380Y-108364285D02*
X180032380Y-108364285D01*
X180032380Y-107983333D01*
X180080000Y-107888095D01*
X180127619Y-107840476D01*
X180222857Y-107792857D01*
X180365714Y-107792857D01*
X180460952Y-107840476D01*
X180508571Y-107888095D01*
X180556190Y-107983333D01*
X180556190Y-108364285D01*
X181032380Y-106840476D02*
X181032380Y-107411904D01*
X181032380Y-107126190D02*
X180032380Y-107126190D01*
X180175238Y-107221428D01*
X180270476Y-107316666D01*
X180318095Y-107411904D01*
X180032380Y-106507142D02*
X180032380Y-105888095D01*
X180413333Y-106221428D01*
X180413333Y-106078571D01*
X180460952Y-105983333D01*
X180508571Y-105935714D01*
X180603809Y-105888095D01*
X180841904Y-105888095D01*
X180937142Y-105935714D01*
X180984761Y-105983333D01*
X181032380Y-106078571D01*
X181032380Y-106364285D01*
X180984761Y-106459523D01*
X180937142Y-106507142D01*
%TO.C,R14*%
X227207142Y-123032380D02*
X226873809Y-122556190D01*
X226635714Y-123032380D02*
X226635714Y-122032380D01*
X227016666Y-122032380D01*
X227111904Y-122080000D01*
X227159523Y-122127619D01*
X227207142Y-122222857D01*
X227207142Y-122365714D01*
X227159523Y-122460952D01*
X227111904Y-122508571D01*
X227016666Y-122556190D01*
X226635714Y-122556190D01*
X228159523Y-123032380D02*
X227588095Y-123032380D01*
X227873809Y-123032380D02*
X227873809Y-122032380D01*
X227778571Y-122175238D01*
X227683333Y-122270476D01*
X227588095Y-122318095D01*
X229016666Y-122365714D02*
X229016666Y-123032380D01*
X228778571Y-121984761D02*
X228540476Y-122699047D01*
X229159523Y-122699047D01*
%TO.C,R15*%
X227207142Y-129032380D02*
X226873809Y-128556190D01*
X226635714Y-129032380D02*
X226635714Y-128032380D01*
X227016666Y-128032380D01*
X227111904Y-128080000D01*
X227159523Y-128127619D01*
X227207142Y-128222857D01*
X227207142Y-128365714D01*
X227159523Y-128460952D01*
X227111904Y-128508571D01*
X227016666Y-128556190D01*
X226635714Y-128556190D01*
X228159523Y-129032380D02*
X227588095Y-129032380D01*
X227873809Y-129032380D02*
X227873809Y-128032380D01*
X227778571Y-128175238D01*
X227683333Y-128270476D01*
X227588095Y-128318095D01*
X229064285Y-128032380D02*
X228588095Y-128032380D01*
X228540476Y-128508571D01*
X228588095Y-128460952D01*
X228683333Y-128413333D01*
X228921428Y-128413333D01*
X229016666Y-128460952D01*
X229064285Y-128508571D01*
X229111904Y-128603809D01*
X229111904Y-128841904D01*
X229064285Y-128937142D01*
X229016666Y-128984761D01*
X228921428Y-129032380D01*
X228683333Y-129032380D01*
X228588095Y-128984761D01*
X228540476Y-128937142D01*
%TO.C,R16*%
X180392380Y-121872857D02*
X179916190Y-122206190D01*
X180392380Y-122444285D02*
X179392380Y-122444285D01*
X179392380Y-122063333D01*
X179440000Y-121968095D01*
X179487619Y-121920476D01*
X179582857Y-121872857D01*
X179725714Y-121872857D01*
X179820952Y-121920476D01*
X179868571Y-121968095D01*
X179916190Y-122063333D01*
X179916190Y-122444285D01*
X180392380Y-120920476D02*
X180392380Y-121491904D01*
X180392380Y-121206190D02*
X179392380Y-121206190D01*
X179535238Y-121301428D01*
X179630476Y-121396666D01*
X179678095Y-121491904D01*
X179392380Y-120063333D02*
X179392380Y-120253809D01*
X179440000Y-120349047D01*
X179487619Y-120396666D01*
X179630476Y-120491904D01*
X179820952Y-120539523D01*
X180201904Y-120539523D01*
X180297142Y-120491904D01*
X180344761Y-120444285D01*
X180392380Y-120349047D01*
X180392380Y-120158571D01*
X180344761Y-120063333D01*
X180297142Y-120015714D01*
X180201904Y-119968095D01*
X179963809Y-119968095D01*
X179868571Y-120015714D01*
X179820952Y-120063333D01*
X179773333Y-120158571D01*
X179773333Y-120349047D01*
X179820952Y-120444285D01*
X179868571Y-120491904D01*
X179963809Y-120539523D01*
%TO.C,R17*%
X227207142Y-135032380D02*
X226873809Y-134556190D01*
X226635714Y-135032380D02*
X226635714Y-134032380D01*
X227016666Y-134032380D01*
X227111904Y-134080000D01*
X227159523Y-134127619D01*
X227207142Y-134222857D01*
X227207142Y-134365714D01*
X227159523Y-134460952D01*
X227111904Y-134508571D01*
X227016666Y-134556190D01*
X226635714Y-134556190D01*
X228159523Y-135032380D02*
X227588095Y-135032380D01*
X227873809Y-135032380D02*
X227873809Y-134032380D01*
X227778571Y-134175238D01*
X227683333Y-134270476D01*
X227588095Y-134318095D01*
X228492857Y-134032380D02*
X229159523Y-134032380D01*
X228730952Y-135032380D01*
%TO.C,R18*%
X227207142Y-141032380D02*
X226873809Y-140556190D01*
X226635714Y-141032380D02*
X226635714Y-140032380D01*
X227016666Y-140032380D01*
X227111904Y-140080000D01*
X227159523Y-140127619D01*
X227207142Y-140222857D01*
X227207142Y-140365714D01*
X227159523Y-140460952D01*
X227111904Y-140508571D01*
X227016666Y-140556190D01*
X226635714Y-140556190D01*
X228159523Y-141032380D02*
X227588095Y-141032380D01*
X227873809Y-141032380D02*
X227873809Y-140032380D01*
X227778571Y-140175238D01*
X227683333Y-140270476D01*
X227588095Y-140318095D01*
X228730952Y-140460952D02*
X228635714Y-140413333D01*
X228588095Y-140365714D01*
X228540476Y-140270476D01*
X228540476Y-140222857D01*
X228588095Y-140127619D01*
X228635714Y-140080000D01*
X228730952Y-140032380D01*
X228921428Y-140032380D01*
X229016666Y-140080000D01*
X229064285Y-140127619D01*
X229111904Y-140222857D01*
X229111904Y-140270476D01*
X229064285Y-140365714D01*
X229016666Y-140413333D01*
X228921428Y-140460952D01*
X228730952Y-140460952D01*
X228635714Y-140508571D01*
X228588095Y-140556190D01*
X228540476Y-140651428D01*
X228540476Y-140841904D01*
X228588095Y-140937142D01*
X228635714Y-140984761D01*
X228730952Y-141032380D01*
X228921428Y-141032380D01*
X229016666Y-140984761D01*
X229064285Y-140937142D01*
X229111904Y-140841904D01*
X229111904Y-140651428D01*
X229064285Y-140556190D01*
X229016666Y-140508571D01*
X228921428Y-140460952D01*
%TO.C,U1*%
X203682380Y-87721904D02*
X204491904Y-87721904D01*
X204587142Y-87674285D01*
X204634761Y-87626666D01*
X204682380Y-87531428D01*
X204682380Y-87340952D01*
X204634761Y-87245714D01*
X204587142Y-87198095D01*
X204491904Y-87150476D01*
X203682380Y-87150476D01*
X204682380Y-86150476D02*
X204682380Y-86721904D01*
X204682380Y-86436190D02*
X203682380Y-86436190D01*
X203825238Y-86531428D01*
X203920476Y-86626666D01*
X203968095Y-86721904D01*
%TO.C,U2*%
X257282380Y-123071904D02*
X258091904Y-123071904D01*
X258187142Y-123024285D01*
X258234761Y-122976666D01*
X258282380Y-122881428D01*
X258282380Y-122690952D01*
X258234761Y-122595714D01*
X258187142Y-122548095D01*
X258091904Y-122500476D01*
X257282380Y-122500476D01*
X257377619Y-122071904D02*
X257330000Y-122024285D01*
X257282380Y-121929047D01*
X257282380Y-121690952D01*
X257330000Y-121595714D01*
X257377619Y-121548095D01*
X257472857Y-121500476D01*
X257568095Y-121500476D01*
X257710952Y-121548095D01*
X258282380Y-122119523D01*
X258282380Y-121500476D01*
%TO.C,SW1*%
X211004761Y-67033333D02*
X211052380Y-66890476D01*
X211052380Y-66652380D01*
X211004761Y-66557142D01*
X210957142Y-66509523D01*
X210861904Y-66461904D01*
X210766666Y-66461904D01*
X210671428Y-66509523D01*
X210623809Y-66557142D01*
X210576190Y-66652380D01*
X210528571Y-66842857D01*
X210480952Y-66938095D01*
X210433333Y-66985714D01*
X210338095Y-67033333D01*
X210242857Y-67033333D01*
X210147619Y-66985714D01*
X210100000Y-66938095D01*
X210052380Y-66842857D01*
X210052380Y-66604761D01*
X210100000Y-66461904D01*
X210052380Y-66128571D02*
X211052380Y-65890476D01*
X210338095Y-65700000D01*
X211052380Y-65509523D01*
X210052380Y-65271428D01*
X211052380Y-64366666D02*
X211052380Y-64938095D01*
X211052380Y-64652380D02*
X210052380Y-64652380D01*
X210195238Y-64747619D01*
X210290476Y-64842857D01*
X210338095Y-64938095D01*
%TO.C,SW2*%
X211004761Y-76033333D02*
X211052380Y-75890476D01*
X211052380Y-75652380D01*
X211004761Y-75557142D01*
X210957142Y-75509523D01*
X210861904Y-75461904D01*
X210766666Y-75461904D01*
X210671428Y-75509523D01*
X210623809Y-75557142D01*
X210576190Y-75652380D01*
X210528571Y-75842857D01*
X210480952Y-75938095D01*
X210433333Y-75985714D01*
X210338095Y-76033333D01*
X210242857Y-76033333D01*
X210147619Y-75985714D01*
X210100000Y-75938095D01*
X210052380Y-75842857D01*
X210052380Y-75604761D01*
X210100000Y-75461904D01*
X210052380Y-75128571D02*
X211052380Y-74890476D01*
X210338095Y-74700000D01*
X211052380Y-74509523D01*
X210052380Y-74271428D01*
X210147619Y-73938095D02*
X210100000Y-73890476D01*
X210052380Y-73795238D01*
X210052380Y-73557142D01*
X210100000Y-73461904D01*
X210147619Y-73414285D01*
X210242857Y-73366666D01*
X210338095Y-73366666D01*
X210480952Y-73414285D01*
X211052380Y-73985714D01*
X211052380Y-73366666D01*
%TD*%
M02*
