%TF.GenerationSoftware,KiCad,Pcbnew,(5.1.9)-1*%
%TF.CreationDate,2021-04-12T11:09:12+02:00*%
%TF.ProjectId,FinalBoard,46696e61-6c42-46f6-9172-642e6b696361,v01*%
%TF.SameCoordinates,Original*%
%TF.FileFunction,Soldermask,Bot*%
%TF.FilePolarity,Negative*%
%FSLAX46Y46*%
G04 Gerber Fmt 4.6, Leading zero omitted, Abs format (unit mm)*
G04 Created by KiCad (PCBNEW (5.1.9)-1) date 2021-04-12 11:09:12*
%MOMM*%
%LPD*%
G01*
G04 APERTURE LIST*
%ADD10C,1.778000*%
%ADD11R,1.778000X1.778000*%
%ADD12C,0.800000*%
%ADD13C,6.300000*%
%ADD14O,1.700000X1.700000*%
%ADD15R,1.700000X1.700000*%
%ADD16O,2.400000X2.400000*%
%ADD17C,2.400000*%
%ADD18R,1.500000X1.050000*%
%ADD19O,1.500000X1.050000*%
%ADD20O,1.600000X1.600000*%
%ADD21R,1.600000X1.600000*%
%ADD22C,1.524000*%
%ADD23C,2.000000*%
%ADD24R,2.000000X2.000000*%
%ADD25C,6.400000*%
%ADD26O,1.800000X3.600000*%
%ADD27C,1.700000*%
%ADD28O,4.000000X1.800000*%
%ADD29O,1.800000X4.000000*%
%ADD30R,1.800000X4.400000*%
%ADD31R,2.000000X1.905000*%
%ADD32O,2.000000X1.905000*%
G04 APERTURE END LIST*
%TO.C,J3*%
G36*
G01*
X253100000Y-154800000D02*
X251900000Y-154800000D01*
G75*
G02*
X251500000Y-154400000I0J400000D01*
G01*
X251500000Y-153600000D01*
G75*
G02*
X251900000Y-153200000I400000J0D01*
G01*
X253100000Y-153200000D01*
G75*
G02*
X253500000Y-153600000I0J-400000D01*
G01*
X253500000Y-154400000D01*
G75*
G02*
X253100000Y-154800000I-400000J0D01*
G01*
G37*
G36*
G01*
X248100000Y-150990000D02*
X246900000Y-150990000D01*
G75*
G02*
X246500000Y-150590000I0J400000D01*
G01*
X246500000Y-149790000D01*
G75*
G02*
X246900000Y-149390000I400000J0D01*
G01*
X248100000Y-149390000D01*
G75*
G02*
X248500000Y-149790000I0J-400000D01*
G01*
X248500000Y-150590000D01*
G75*
G02*
X248100000Y-150990000I-400000J0D01*
G01*
G37*
G36*
G01*
X253100000Y-147180000D02*
X251900000Y-147180000D01*
G75*
G02*
X251500000Y-146780000I0J400000D01*
G01*
X251500000Y-145980000D01*
G75*
G02*
X251900000Y-145580000I400000J0D01*
G01*
X253100000Y-145580000D01*
G75*
G02*
X253500000Y-145980000I0J-400000D01*
G01*
X253500000Y-146780000D01*
G75*
G02*
X253100000Y-147180000I-400000J0D01*
G01*
G37*
G36*
G01*
X248100000Y-143370000D02*
X246900000Y-143370000D01*
G75*
G02*
X246500000Y-142970000I0J400000D01*
G01*
X246500000Y-142170000D01*
G75*
G02*
X246900000Y-141770000I400000J0D01*
G01*
X248100000Y-141770000D01*
G75*
G02*
X248500000Y-142170000I0J-400000D01*
G01*
X248500000Y-142970000D01*
G75*
G02*
X248100000Y-143370000I-400000J0D01*
G01*
G37*
G36*
G01*
X253100000Y-139560000D02*
X251900000Y-139560000D01*
G75*
G02*
X251500000Y-139160000I0J400000D01*
G01*
X251500000Y-138360000D01*
G75*
G02*
X251900000Y-137960000I400000J0D01*
G01*
X253100000Y-137960000D01*
G75*
G02*
X253500000Y-138360000I0J-400000D01*
G01*
X253500000Y-139160000D01*
G75*
G02*
X253100000Y-139560000I-400000J0D01*
G01*
G37*
G36*
G01*
X248100000Y-135750000D02*
X246900000Y-135750000D01*
G75*
G02*
X246500000Y-135350000I0J400000D01*
G01*
X246500000Y-134550000D01*
G75*
G02*
X246900000Y-134150000I400000J0D01*
G01*
X248100000Y-134150000D01*
G75*
G02*
X248500000Y-134550000I0J-400000D01*
G01*
X248500000Y-135350000D01*
G75*
G02*
X248100000Y-135750000I-400000J0D01*
G01*
G37*
G36*
G01*
X253100000Y-131940000D02*
X251900000Y-131940000D01*
G75*
G02*
X251500000Y-131540000I0J400000D01*
G01*
X251500000Y-130740000D01*
G75*
G02*
X251900000Y-130340000I400000J0D01*
G01*
X253100000Y-130340000D01*
G75*
G02*
X253500000Y-130740000I0J-400000D01*
G01*
X253500000Y-131540000D01*
G75*
G02*
X253100000Y-131940000I-400000J0D01*
G01*
G37*
%TD*%
D10*
%TO.C,ESP32_Gateway_revG*%
X193166000Y-94814000D03*
X203326000Y-94814000D03*
X205866000Y-94814000D03*
X208406000Y-94814000D03*
X200786000Y-94814000D03*
X195706000Y-94814000D03*
X185546000Y-94814000D03*
D11*
X180466000Y-94814000D03*
D10*
X198246000Y-94814000D03*
X190626000Y-94814000D03*
X188086000Y-94814000D03*
X210946000Y-94814000D03*
X213486000Y-94814000D03*
X183006000Y-94814000D03*
X221106000Y-94814000D03*
X223646000Y-94814000D03*
X228726000Y-94814000D03*
X226186000Y-94814000D03*
X216026000Y-94814000D03*
X218566000Y-94814000D03*
D12*
X183296000Y-149334000D03*
X180896000Y-151734000D03*
X181598944Y-150036944D03*
X181598944Y-153431056D03*
X184993056Y-150036944D03*
D13*
X183296000Y-151734000D03*
D12*
X184993056Y-153431056D03*
X183296000Y-154134000D03*
X185696000Y-151734000D03*
%TD*%
D14*
%TO.C,D4*%
X198500000Y-79040000D03*
D15*
X198500000Y-76500000D03*
%TD*%
D16*
%TO.C,R8*%
X192800000Y-71500000D03*
D17*
X205500000Y-71500000D03*
%TD*%
D18*
%TO.C,Q2*%
X254500000Y-77500000D03*
D19*
X254500000Y-80040000D03*
X254500000Y-78770000D03*
%TD*%
%TO.C,Q1*%
X236500000Y-78770000D03*
X236500000Y-80040000D03*
D18*
X236500000Y-77500000D03*
%TD*%
D20*
%TO.C,U3*%
X255500000Y-115120000D03*
X250420000Y-107500000D03*
X252960000Y-115120000D03*
X252960000Y-107500000D03*
X250420000Y-115120000D03*
D21*
X255500000Y-107500000D03*
%TD*%
D22*
%TO.C,C2*%
X215500000Y-83500000D03*
X215500000Y-90000000D03*
%TD*%
D20*
%TO.C,D2*%
X236500000Y-91120000D03*
D21*
X236500000Y-83500000D03*
%TD*%
D23*
%TO.C,K2*%
X248580000Y-77500000D03*
X248580000Y-80040000D03*
D24*
X243500000Y-77500000D03*
D23*
X243500000Y-80040000D03*
X248580000Y-87660000D03*
X243500000Y-87660000D03*
%TD*%
D16*
%TO.C,R1*%
X234200000Y-101500000D03*
D17*
X221500000Y-101500000D03*
%TD*%
D16*
%TO.C,R2*%
X234200000Y-107500000D03*
D17*
X221500000Y-107500000D03*
%TD*%
%TO.C,R4*%
X239500000Y-108000000D03*
D16*
X239500000Y-95300000D03*
%TD*%
D23*
%TO.C,K1*%
X225500000Y-87660000D03*
X230580000Y-87660000D03*
X225500000Y-80040000D03*
D24*
X225500000Y-77500000D03*
D23*
X230580000Y-80040000D03*
X230580000Y-77500000D03*
%TD*%
D17*
%TO.C,R5*%
X245500000Y-108000000D03*
D16*
X245500000Y-95300000D03*
%TD*%
D12*
%TO.C,GND*%
X254847056Y-97802944D03*
X253150000Y-97100000D03*
X251452944Y-97802944D03*
X250750000Y-99500000D03*
X251452944Y-101197056D03*
X253150000Y-101900000D03*
X254847056Y-101197056D03*
X255550000Y-99500000D03*
D25*
X253150000Y-99500000D03*
%TD*%
%TO.C,J4*%
G36*
G01*
X187400000Y-69950000D02*
X187400000Y-73050000D01*
G75*
G02*
X187150000Y-73300000I-250000J0D01*
G01*
X185850000Y-73300000D01*
G75*
G02*
X185600000Y-73050000I0J250000D01*
G01*
X185600000Y-69950000D01*
G75*
G02*
X185850000Y-69700000I250000J0D01*
G01*
X187150000Y-69700000D01*
G75*
G02*
X187400000Y-69950000I0J-250000D01*
G01*
G37*
D26*
X182690000Y-71500000D03*
%TD*%
D14*
%TO.C,J2*%
X189060000Y-155500000D03*
X191600000Y-155500000D03*
X194140000Y-155500000D03*
X196680000Y-155500000D03*
X199220000Y-155500000D03*
X201760000Y-155500000D03*
X204300000Y-155500000D03*
X206840000Y-155500000D03*
X209380000Y-155500000D03*
X211920000Y-155500000D03*
X214460000Y-155500000D03*
D15*
X217000000Y-155500000D03*
%TD*%
%TO.C,ESP32_devkitV1*%
X188628000Y-142814000D03*
D14*
X188628000Y-117414000D03*
X188628000Y-130114000D03*
X188628000Y-114874000D03*
D27*
X188628000Y-107254000D03*
D14*
X188628000Y-109794000D03*
X188628000Y-127574000D03*
X188628000Y-140274000D03*
X188628000Y-132654000D03*
X188628000Y-112334000D03*
X188628000Y-137734000D03*
X188628000Y-135194000D03*
X188628000Y-125034000D03*
X188628000Y-122494000D03*
X188628000Y-119954000D03*
X213528000Y-142814000D03*
X213528000Y-117414000D03*
X213528000Y-130114000D03*
X213528000Y-114874000D03*
D27*
X213528000Y-107254000D03*
D14*
X213528000Y-109794000D03*
X213528000Y-127574000D03*
X213528000Y-140274000D03*
X213528000Y-132654000D03*
X213528000Y-112334000D03*
X213528000Y-137734000D03*
X213528000Y-135194000D03*
X213528000Y-125034000D03*
X213528000Y-122494000D03*
X213528000Y-119954000D03*
%TD*%
D22*
%TO.C,C1*%
X199500000Y-83500000D03*
X199500000Y-90000000D03*
%TD*%
%TO.C,C3*%
X183500000Y-133000000D03*
X183500000Y-126500000D03*
%TD*%
D15*
%TO.C,D1*%
X205500000Y-76500000D03*
D14*
X205500000Y-79040000D03*
%TD*%
D21*
%TO.C,D3*%
X254500000Y-83500000D03*
D20*
X254500000Y-91120000D03*
%TD*%
D15*
%TO.C,D5*%
X241500000Y-119500000D03*
D14*
X238960000Y-119500000D03*
%TD*%
%TO.C,D6*%
X238960000Y-113500000D03*
D15*
X241500000Y-113500000D03*
%TD*%
D28*
%TO.C,J1*%
X190130000Y-90300000D03*
D29*
X187330000Y-85500000D03*
D30*
X193130000Y-85500000D03*
%TD*%
%TO.C,J5*%
G36*
G01*
X235400000Y-69950000D02*
X235400000Y-73050000D01*
G75*
G02*
X235150000Y-73300000I-250000J0D01*
G01*
X233850000Y-73300000D01*
G75*
G02*
X233600000Y-73050000I0J250000D01*
G01*
X233600000Y-69950000D01*
G75*
G02*
X233850000Y-69700000I250000J0D01*
G01*
X235150000Y-69700000D01*
G75*
G02*
X235400000Y-69950000I0J-250000D01*
G01*
G37*
D26*
X230690000Y-71500000D03*
X226880000Y-71500000D03*
%TD*%
%TO.C,J6*%
X244880000Y-71500000D03*
X248690000Y-71500000D03*
G36*
G01*
X253400000Y-69950000D02*
X253400000Y-73050000D01*
G75*
G02*
X253150000Y-73300000I-250000J0D01*
G01*
X251850000Y-73300000D01*
G75*
G02*
X251600000Y-73050000I0J250000D01*
G01*
X251600000Y-69950000D01*
G75*
G02*
X251850000Y-69700000I250000J0D01*
G01*
X253150000Y-69700000D01*
G75*
G02*
X253400000Y-69950000I0J-250000D01*
G01*
G37*
%TD*%
D15*
%TO.C,JP1*%
X186018000Y-77000000D03*
D14*
X183478000Y-77000000D03*
X180938000Y-77000000D03*
%TD*%
D17*
%TO.C,R3*%
X205500000Y-65500000D03*
D16*
X192800000Y-65500000D03*
%TD*%
%TO.C,R6*%
X234200000Y-113500000D03*
D17*
X221500000Y-113500000D03*
%TD*%
%TO.C,R7*%
X221500000Y-119500000D03*
D16*
X234200000Y-119500000D03*
%TD*%
D17*
%TO.C,R9*%
X221500000Y-149500000D03*
D16*
X234200000Y-149500000D03*
%TD*%
%TO.C,R10*%
X239500000Y-142800000D03*
D17*
X239500000Y-155500000D03*
%TD*%
D16*
%TO.C,R11*%
X234200000Y-155500000D03*
D17*
X221500000Y-155500000D03*
%TD*%
%TO.C,R12*%
X239500000Y-137500000D03*
D16*
X239500000Y-124800000D03*
%TD*%
%TO.C,R13*%
X183500000Y-100800000D03*
D17*
X183500000Y-113500000D03*
%TD*%
%TO.C,R14*%
X221500000Y-125500000D03*
D16*
X234200000Y-125500000D03*
%TD*%
D17*
%TO.C,R15*%
X221500000Y-131500000D03*
D16*
X234200000Y-131500000D03*
%TD*%
D19*
%TO.C,R16*%
X183500000Y-119960000D03*
D18*
X183500000Y-122500000D03*
%TD*%
D17*
%TO.C,R17*%
X221500000Y-137500000D03*
D16*
X234200000Y-137500000D03*
%TD*%
%TO.C,R18*%
X234200000Y-143500000D03*
D17*
X221500000Y-143500000D03*
%TD*%
D31*
%TO.C,U1*%
X208500000Y-89500000D03*
D32*
X208500000Y-86960000D03*
X208500000Y-84420000D03*
%TD*%
D21*
%TO.C,U2*%
X255500000Y-118500000D03*
D20*
X250420000Y-126120000D03*
X252960000Y-118500000D03*
X252960000Y-126120000D03*
X250420000Y-118500000D03*
X255500000Y-126120000D03*
%TD*%
D14*
%TO.C,SW1*%
X212500000Y-64000000D03*
X219000000Y-64000000D03*
X212500000Y-68500000D03*
X219000000Y-68500000D03*
%TD*%
%TO.C,SW2*%
X219000000Y-77500000D03*
X212500000Y-77500000D03*
X219000000Y-73000000D03*
X212500000Y-73000000D03*
%TD*%
M02*
